<?xml version="1.0" encoding="utf-8"?>
<!-- Generator: Adobe Illustrator 21.0.0, SVG Export Plug-In . SVG Version: 6.00 Build 0)  -->
<svg version="1.1" id="Warstwa_1" xmlns="http://www.w3.org/2000/svg" xmlns:xlink="http://www.w3.org/1999/xlink" x="0px" y="0px"
	 viewBox="0 0 520 142" style="enable-background:new 0 0 520 142;" xml:space="preserve">
<style type="text/css">
	.st0{fill:#007D32;}
	.st1{fill:#82BC00;}
	.st2{fill:#FFFFFF;}
	.st3{fill-rule:evenodd;clip-rule:evenodd;fill:#FFFFFF;}
	.st4{fill:#F39323;}
	.st5{fill:#FAEA26;}
	.st6{fill:#E52429;}
	.st7{fill:#1D070D;}
	.st8{fill:#9E1A16;}
	.st9{fill:#C4181D;}
	.st10{fill:#E31C0A;}
	.st11{fill:#00953A;}
	.st12{fill:#B4301B;}
</style>
<g>
	<path class="st0" d="M520,107.8l-22.3,1.8l-11.8,0.9l-13.8,1l-15.8,1.1c-2.8,0.2-5.6,0.4-8.5,0.5l-8.9,0.5l-19,1.1
		c-6.6,0.4-13.4,0.6-20.3,1l-10.6,0.5l-5.4,0.2l-5.5,0.2l-22.4,0.8c-3.8,0.2-7.6,0.2-11.5,0.3l-11.7,0.3l-11.8,0.3
		c-4,0.1-8,0.1-12,0.2l-24.2,0.4l-24.4,0.1c-8.1,0.1-16.3,0-24.4-0.1s-16.2-0.1-24.2-0.3l-23.8-0.4l-23.2-0.6
		c-7.6-0.2-15.1-0.5-22.4-0.8l-10.9-0.4c-3.5-0.1-7.1-0.3-10.6-0.5c-14-0.7-27.2-1.3-39.3-2.1l-17.5-1.1c-5.6-0.4-10.8-0.8-15.7-1.2
		l-13.8-1c-4.3-0.3-8.3-0.7-11.8-0.9L0,107.8v-0.5l22.3,1.6c3.5,0.2,7.5,0.6,11.8,0.8l13.8,0.8c5,0.3,10.2,0.6,15.8,0.9l17.5,0.9
		c12.2,0.7,25.4,1.2,39.3,1.8c3.5,0.2,7.1,0.3,10.6,0.4l10.9,0.4l11.1,0.4c3.7,0.2,7.5,0.2,11.3,0.3l23.2,0.6l23.8,0.4
		c8,0.2,16.1,0.2,24.2,0.2s16.2,0.1,24.4,0l24.4-0.1l24.2-0.3c4-0.1,8-0.1,12-0.2l11.8-0.3l11.7-0.3c3.9-0.1,7.7-0.2,11.5-0.3
		c15.2-0.5,30-0.9,43.9-1.5c7-0.3,13.8-0.5,20.3-0.8l19-0.9c12.2-0.6,23.3-1.2,33.2-1.8l13.9-0.8l11.8-0.8l22.3-1.4L520,107.8z"/>
	<path class="st0" d="M0.1,42.3l22.3-1.8l11.8-0.9l13.8-1l15.8-1.1c2.8-0.2,5.6-0.4,8.5-0.5l8.9-0.5l19-1.1c6.6-0.4,13.4-0.6,20.3-1
		l10.6-0.5l5.4-0.2l5.5-0.2l22.4-0.8c3.8-0.2,7.6-0.2,11.5-0.3l11.7-0.3l11.8-0.3c4-0.1,8-0.1,12-0.2l24.2-0.4l24.4-0.1
		c8.1-0.1,16.3,0,24.4,0.1c8.1,0.1,16.2,0.1,24.2,0.3l23.8,0.4l23.2,0.6c7.6,0.2,15.1,0.5,22.4,0.8l10.9,0.4
		c3.5,0.1,7.1,0.3,10.6,0.5c14,0.7,27.2,1.3,39.3,2.1l17.5,1.1c5.6,0.4,10.8,0.8,15.7,1.2l13.8,1c4.3,0.3,8.3,0.7,11.8,0.9l22.3,1.9
		v0.5l-22.3-1.6c-3.5-0.2-7.5-0.6-11.8-0.8L472,39.6c-5-0.3-10.2-0.6-15.8-0.9l-17.5-0.9c-12.2-0.7-25.4-1.2-39.3-1.8
		c-3.5-0.2-7.1-0.3-10.6-0.4l-10.9-0.4l-11.1-0.4c-3.7-0.2-7.5-0.2-11.3-0.3L332.3,34l-23.8-0.4c-8-0.2-16.1-0.2-24.2-0.2
		s-16.2-0.1-24.4,0l-24.4,0.1l-24.2,0.3c-4,0.1-8,0.1-12,0.2l-11.8,0.3L176,34.5c-3.9,0.1-7.7,0.2-11.5,0.3
		c-15.2,0.5-30,0.9-43.9,1.5c-7,0.3-13.8,0.5-20.3,0.8l-19,0.8c-12.2,0.6-23.3,1.2-33.2,1.8l-13.9,0.8l-11.8,0.8L0.1,42.8L0.1,42.3z
		"/>
	<path class="st1" d="M0,46.1l22.3-1.5l11.8-0.7L48,43.1l15.8-0.9c5.6-0.3,11.4-0.5,17.5-0.8c6.1-0.3,12.4-0.6,19-0.9l20.3-0.8
		l10.6-0.4L142,39l22.4-0.6c15.2-0.3,31-0.7,47-0.8s32.3-0.2,48.5-0.3s32.5,0.1,48.5,0.3c16,0.2,31.8,0.5,47,0.8l22.4,0.6l10.9,0.3
		l10.6,0.4l20.3,0.8c6.6,0.3,13,0.6,19,0.9s11.9,0.5,17.5,0.8l15.8,0.9l13.9,0.8l11.8,0.7l22.3,1.5v0.5l-22.3-0.9l-11.8-0.5
		L472,44.7l-15.8-0.6l-17.5-0.5c-6.1-0.2-12.4-0.4-19-0.6l-20.3-0.5l-10.6-0.3L377.9,42l-22.4-0.5l-23.2-0.3
		c-3.9,0-7.9-0.1-11.8-0.1l-11.9-0.1c-16-0.2-32.2-0.2-48.5-0.2c-16.2-0.1-32.5,0-48.5,0.2L199.7,41c-4,0-7.9,0.1-11.8,0.1
		l-23.4,0.3L142.1,42l-10.9,0.2l-10.6,0.3L100.3,43c-6.6,0.2-13,0.4-19,0.6l-17.5,0.5L48,44.7l-13.9,0.5l-11.8,0.5L0.1,46.5L0,46.1z
		"/>
	<path class="st1" d="M520,103.9l-22.3,1.5l-11.8,0.7l-13.9,0.8l-15.8,0.9c-5.6,0.3-11.4,0.5-17.5,0.8c-6.1,0.3-12.4,0.6-19,0.9
		l-20.3,0.8l-10.6,0.4l-10.9,0.3l-22.4,0.6c-15.2,0.3-31,0.7-47,0.8s-32.3,0.2-48.5,0.3s-32.5-0.1-48.5-0.3s-31.8-0.5-47-0.8
		l-22.4-0.6l-10.9-0.3l-10.6-0.4l-20.3-0.8c-6.6-0.3-13-0.6-19-0.9c-6-0.3-12-0.5-17.5-0.8l-15.8-0.9l-13.9-0.8l-11.8-0.7L0,103.9
		v-0.5l22.3,0.9l11.8,0.5l13.9,0.5l15.7,0.6l17.5,0.5c6.1,0.2,12.5,0.4,19.1,0.6l20.3,0.5l10.6,0.3l10.9,0.2l22.4,0.5l23.2,0.3
		c3.9,0,7.9,0.1,11.8,0.1l11.9,0.1c16,0.2,32.2,0.2,48.5,0.2s32.5,0,48.5-0.2l11.9-0.1c4,0,7.9-0.1,11.8-0.1l23.2-0.3l22.4-0.4
		l10.9-0.2l10.6-0.3l20.5-0.5c6.6-0.2,13-0.4,19-0.6l17.5-0.5l15.8-0.6l13.9-0.5l11.8-0.5l22.2-0.9L520,103.9z"/>
	<g>
		<path class="st1" d="M246.9,122.5c-63.9-14.3-93-27.5-89.4-52.6c1.2-8.2,6-19.5,15.2-29.8c19-21.5,53.5-41.3,90.5-36.9
			c29.1,3.4,52.8,23.9,67.3,46.9c13,20.4,18.6,42.8,15.8,57.2C340.4,137.9,307.5,136.1,246.9,122.5"/>
		<path class="st2" d="M247.8,118.4c-61-13.3-88.8-25.5-85.2-48.6c1.2-7.5,5.8-17.8,14.6-27.3C195.3,22.9,228.3,4.9,263.7,9
			c27.7,3.2,50.3,22.1,64.2,43.2c12.3,18.7,17.6,39.3,14.9,52.5C337,132.8,305.6,131,247.8,118.4"/>
		<path class="st0" d="M264.1,14.5c68.8,10.5,100.7,22.3,98.6,49.1c-0.7,8.7-5,21-14,32.6c-18.6,24.1-53.7,47.4-93.3,45.4
			c-31.1-1.5-57.7-21.4-74.8-44.6c-15.2-20.6-22.8-43.8-20.9-59.2C163.8,5,198.8,4.6,264.1,14.5"/>
		<path class="st2" d="M262.6,17.9c63.5,7.7,95.2,18.5,94.2,44c-0.3,8.3-3.9,20-11.7,31.4c-16.2,23.4-49.7,46.1-86,45.5
			c-28.6-0.4-53.7-18.4-70.2-39.9c-14.6-19-24.8-42.7-23.6-57.4C167.9,10.3,202.4,10.6,262.6,17.9"/>
		<path class="st0" d="M191.3,69.7h13.4c0.3,0,0.6,0,1,0.1c0.3,0.1,0.4,0.4,0.4,0.7v3.1c0,0.3-0.1,0.6-0.4,0.7
			c-0.3,0.1-0.6,0.1-0.9,0.1h-21.3c-0.3,0-0.6,0-1-0.1c-0.3,0-0.5-0.3-0.4-0.6c0-0.1,0-0.2,0-0.3c0-0.1,0.1-0.3,0.3-0.6l15.7-33.6
			h-12.3c-2.4,0-3.6-3.1-2-4.6h5.6h14.8c1.2,0,2.2,1,2.2,2.2c0,0.3-0.1,0.7-0.2,1L191.3,69.7z"/>
		<path class="st0" d="M215.8,43.1c-0.7,0.6-1.6,1-2.5,0.9c-1,0.1-1.9-0.3-2.6-0.9c-0.6-0.6-1-1.4-0.9-2.3c0-0.9,0.3-1.7,0.9-2.4
			c0.7-0.7,1.7-1,2.6-1c0.9-0.1,1.9,0.3,2.5,0.9c0.5,0.6,0.9,1.4,0.9,2.2C216.7,41.6,216.4,42.5,215.8,43.1z M216.6,73.3
			c0.1,0.4-0.1,0.9-0.5,1c-0.2,0.1-0.5,0.1-0.7-0.1h-4.5c-0.3,0.1-0.5,0-0.8-0.1c-0.1-0.3-0.2-0.5-0.1-0.8V48.5c0-0.2,0-0.5,0.2-0.7
			c0.2-0.2,0.6-0.2,0.8-0.1h4.4c0.3-0.1,0.6,0,0.9,0.1c0.2,0.3,0.2,0.6,0.2,0.9L216.6,73.3L216.6,73.3z"/>
		<path class="st0" d="M226.3,60.6c0.1,1.4,0.5,2.8,1.2,4.1c0.5,0.9,1.1,1.8,1.9,2.5c0.6,0.5,1.4,0.9,2.1,1.2
			c0.7,0.2,1.4,0.3,2.1,0.3c1.3,0,2.6-0.3,3.6-1c1-0.6,1.9-1.4,2.6-2.4c0.3-0.4,0.6-0.8,0.9-1.2c0.2-0.2,0.5-0.3,0.8-0.3
			c0.4,0,0.7,0.2,0.9,0.4c0.3,0.3,0.4,0.7,0.4,1.2c0,0.4-0.1,0.8-0.2,1.2c-0.2,0.6-0.4,1.2-0.6,1.8c-0.3,0.7-0.7,1.4-1.2,2.1
			c-0.5,0.7-1.2,1.4-1.9,2c-0.8,0.6-1.7,1.1-2.7,1.5c-1.2,0.4-2.4,0.6-3.6,0.6c-1.6,0-3.2-0.3-4.7-0.9c-1.4-0.6-2.7-1.5-3.7-2.6
			c-1.1-1.2-1.9-2.7-2.4-4.3c-0.6-1.9-0.9-3.8-0.9-5.8c-0.1-2.1,0.3-4.3,1-6.3c0.6-1.6,1.5-3,2.7-4.1c1.1-1.1,2.3-1.9,3.8-2.4
			c1.3-0.5,2.8-0.7,4.2-0.7c3.2-0.2,6.2,1.2,8.1,3.7c0.7,0.9,1.2,2,1.6,3.1c0.2,0.8,0.4,1.6,0.4,2.4c0,0.3-0.1,0.7-0.2,1
			c-0.1,0.2-0.3,0.4-0.5,0.6c-0.2,0.1-0.4,0.2-0.6,0.3l-0.6,0.1L226.3,60.6z M236,56.6c0-1.4-0.5-2.8-1.5-3.9
			c-0.8-0.9-1.9-1.4-3.1-1.4c-0.8,0-1.6,0.2-2.4,0.6c-0.7,0.4-1.2,0.9-1.7,1.5c-0.5,0.7-0.8,1.4-1,2.2c-0.2,0.9-0.4,1.7-0.5,2.6
			L236,56.6z"/>
		<path class="st0" d="M246.9,35.5c0-0.3,0-0.7,0.2-0.9c0.3-0.2,0.6-0.3,1-0.3h4.1c0.3,0,0.6,0.1,0.9,0.2c0.2,0.3,0.3,0.6,0.2,0.9
			v37.9c0.1,0.3,0,0.6-0.3,0.8c-0.3,0.1-0.6,0.1-0.9,0.1h-4.1c-0.3,0-0.6,0-0.9-0.1c-0.2-0.2-0.3-0.6-0.3-0.9L246.9,35.5L246.9,35.5
			z"/>
		<path class="st0" d="M315.9,73.4c0.1,0.3,0,0.6-0.3,0.8c-0.3,0.1-0.6,0.1-0.9,0.1h-4.1c-0.3,0.1-0.7,0-1-0.2
			c-0.1-0.2-0.2-0.5-0.2-0.8V56.1c0-0.5,0-1-0.1-1.7c0-0.6-0.2-1.2-0.5-1.7c-0.3-0.5-0.8-1-1.3-1.3c-0.8-0.4-1.7-0.6-2.6-0.5
			c-0.8,0-1.7,0.1-2.4,0.5c-0.5,0.3-0.9,0.7-1.2,1.2c-0.3,0.4-0.4,0.9-0.5,1.4c0,0.4-0.1,0.8-0.1,1.2v18.1c0.1,0.3,0,0.7-0.3,0.9
			c-0.3,0.1-0.7,0.2-1,0.1h-4.1c-0.3,0.1-0.6,0-0.9-0.1c-0.2-0.2-0.3-0.5-0.2-0.8V53.3c0-0.5,0-1,0-1.4c0-0.4,0.1-0.8,0.3-1.1
			c0.2-0.4,0.4-0.7,0.7-0.9c0.4-0.3,0.9-0.6,1.4-0.8c1.4-0.6,2.8-1,4.3-1.2c1.5-0.2,3-0.3,4.5-0.3c1.1,0,2.2,0.1,3.3,0.2
			c0.8,0.1,1.5,0.3,2.3,0.5c0.5,0.2,1,0.4,1.5,0.7c0.4,0.2,0.6,0.4,0.9,0.6c0.5,0.4,1,0.9,1.4,1.5c0.3,0.5,0.5,1,0.7,1.6
			c0.2,0.5,0.2,1,0.3,1.6c0,0.5,0,1,0,1.4L315.9,73.4L315.9,73.4z"/>
		<path class="st0" d="M340.2,68.6c0,0.9-0.1,1.8-0.4,2.6c-0.4,0.8-1.1,1.4-1.9,1.8c-0.7,0.4-1.4,0.7-2.2,0.8
			c-0.8,0.2-1.6,0.3-2.4,0.4c-0.6,0.1-1.3,0.2-2,0.2h-1.2l-1.4,0c-0.7,0-1.4-0.1-2-0.2c-0.8-0.1-1.6-0.3-2.4-0.6
			c-0.8-0.3-1.5-0.7-2.2-1.2c-0.7-0.5-1.2-1.2-1.6-2c-0.4-0.9-0.7-1.9-0.6-2.9c0-0.8,0.2-1.5,0.4-2.2c0.4-1.1,1-2.1,1.9-2.8
			c0.6-0.5,1.3-1,2-1.4c0.8-0.4,1.6-0.8,2.5-1.1c0.9-0.3,2-0.6,3.2-1c1.2-0.3,2.5-0.6,4-1v-2.6c0-0.5,0-1-0.1-1.5
			c0-0.5-0.2-1-0.4-1.5c-0.2-0.4-0.5-0.8-0.9-1.1c-0.5-0.3-1.2-0.5-1.8-0.4c-0.5,0-1.1,0.1-1.6,0.3c-0.7,0.4-1.3,1-1.7,1.7
			c-0.2,0.3-0.3,0.6-0.4,0.9c-0.1,0.2-0.2,0.6-0.4,0.9c-0.1,0.3-0.3,0.6-0.5,0.8c-0.2,0.3-0.5,0.5-0.8,0.6c-0.4,0.2-0.8,0.2-1.2,0.2
			c-0.7,0-1.5-0.2-2-0.8c-0.6-0.5-0.8-1.3-0.8-2c0-0.8,0.3-1.7,0.7-2.4c0.5-0.8,1.3-1.5,2.1-2c1-0.6,2.1-1.1,3.3-1.4
			c1.4-0.4,2.8-0.6,4.3-0.6c1.7-0.1,3.3,0.2,4.8,0.8c1,0.5,1.9,1.2,2.5,2.1c0.5,0.9,0.8,1.8,0.9,2.8c0.1,1,0.1,2,0.1,2.9L340.2,68.6
			L340.2,68.6z M334,60.9c-1,0.3-2,0.6-2.9,0.9c-0.8,0.3-1.7,0.6-2.4,1.1c-0.7,0.4-1.2,0.9-1.6,1.6c-0.4,0.7-0.6,1.5-0.6,2.4
			c-0.2,2.2,1.5,4.1,3.7,4.2c0.2,0,0.4,0,0.6,0c0.6,0,1.3-0.1,1.8-0.3c0.4-0.2,0.7-0.5,1-0.9c0.2-0.3,0.3-0.7,0.4-1.1
			c0-0.4,0.1-0.7,0.1-1L334,60.9L334,60.9z"/>
		<path class="st1" d="M224.1,93.9l11.5,15.7c0.2,0.2,0.2,0.4,0.3,0.7c0,0.3-0.2,0.5-0.5,0.6c0,0-0.1,0-0.1,0H232
			c-0.3,0-0.5-0.1-0.8-0.2c-0.2-0.2-0.4-0.3-0.5-0.6l-10.8-15.2V110c0,0.2,0,0.4-0.2,0.6c-0.2,0.1-0.4,0.2-0.6,0.2h-2.4
			c-0.3,0-0.5-0.1-0.7-0.2c-0.1-0.2-0.2-0.5-0.2-0.7V81.6c0-0.3,0-0.5,0.2-0.7c0.2-0.1,0.4-0.2,0.6-0.2h2.5c0.2,0,0.5,0,0.7,0.2
			c0.1,0.2,0.2,0.4,0.2,0.7v12.5L230,81.5c0.2-0.2,0.3-0.4,0.5-0.6c0.1-0.1,0.3-0.2,0.5-0.2h2.4c0.4,0,0.6,0.2,0.6,0.5
			c0,0.2-0.1,0.5-0.3,0.6l-0.1,0.2L224.1,93.9z"/>
		<path class="st1" d="M235.3,111.3H232c-0.3,0-0.7-0.1-1-0.2c-0.3-0.2-0.5-0.4-0.7-0.7l-9.9-14V110c0,0.4-0.1,0.8-0.4,1
			c-0.3,0.2-0.6,0.3-0.9,0.3h-2.4c-0.4,0-0.7-0.1-1-0.4c-0.3-0.3-0.4-0.7-0.3-1.1V81.6c-0.1-0.4,0-0.9,0.3-1.2
			c0.3-0.2,0.6-0.3,0.9-0.3h2.5c0.6-0.1,1.2,0.3,1.3,0.8c0,0.1,0,0.3,0,0.4v11.3l9.2-11.5c0.2-0.3,0.4-0.5,0.6-0.7
			c0.2-0.2,0.5-0.3,0.8-0.3h2.4c0.5-0.1,1,0.3,1.1,0.8c0,0.1,0,0.1,0,0.2c0,0.3-0.2,0.6-0.4,0.9l-0.2,0.2l-9.2,11.7l11.3,15.3
			c0.2,0.3,0.3,0.6,0.3,1c0.1,0.5-0.3,1-0.8,1.1C235.5,111.3,235.4,111.3,235.3,111.3z M220.2,94.5l10.9,15.3
			c0.1,0.1,0.2,0.3,0.4,0.4c0.2,0.1,0.4,0.1,0.6,0.1h3.4c0,0,0-0.1,0-0.1c0-0.1-0.1-0.3-0.2-0.4l-11.7-15.9l9.7-12.3l0.1-0.1
			c0.1-0.1,0.2-0.2,0.2-0.4H231c-0.1,0-0.2,0-0.2,0.1c-0.2,0.2-0.3,0.4-0.5,0.6L220.2,94.5z M216.3,110.2c0.1,0.1,0.2,0.1,0.3,0.1
			h2.4c0.1,0,0.2,0,0.3-0.1c0-0.1,0-0.2,0-0.3V95.4l0,0V81.5c0-0.1,0-0.2,0-0.3c-0.1,0-0.2,0-0.3,0h-2.5c-0.1,0-0.2,0-0.3,0
			c0,0.1,0,0.3,0,0.4v28.3C216.3,109.9,216.3,110.1,216.3,110.2L216.3,110.2z M219.5,110.2 M216.3,110.2"/>
		<path class="st1" d="M242.4,109.9c0,0.2-0.1,0.5-0.2,0.7c-0.2,0.1-0.4,0.2-0.6,0.2h-2.2c-0.2,0-0.5-0.1-0.7-0.2
			c-0.1-0.2-0.2-0.4-0.2-0.6V92.2c0-0.6,0-1.1,0.2-1.7c0.2-0.4,0.5-0.7,0.9-0.9c0.9-0.5,1.9-0.8,2.9-1c1.3-0.3,2.5-0.4,3.8-0.4
			c1.1,0,2.1,0.2,3.1,0.6c0.8,0.3,1.3,1.1,1.2,1.9c0,0.5-0.2,0.9-0.5,1.3c-0.3,0.4-0.8,0.5-1.2,0.5c-0.3,0-0.6-0.1-0.8-0.2
			c-0.3-0.3-0.7-0.6-0.9-0.9c-0.3-0.3-0.6-0.6-1-0.8c-0.4-0.2-0.9-0.3-1.3-0.3c-0.5,0-1,0.1-1.4,0.3c-0.3,0.1-0.6,0.4-0.8,0.7
			c-0.1,0.3-0.2,0.6-0.3,0.9c0,0.3,0,0.7,0,1l0,0L242.4,109.9z"/>
		<path class="st1" d="M241.6,111.3h-2.2c-0.3,0-0.7-0.1-1-0.3c-0.3-0.3-0.5-0.7-0.4-1.1V92.2c0-0.6,0.1-1.3,0.2-1.9
			c0.2-0.5,0.6-0.9,1.1-1.2c1-0.5,2-0.9,3-1.1c1.3-0.3,2.6-0.5,3.9-0.5c1.1,0,2.3,0.2,3.3,0.6c1,0.4,1.6,1.3,1.5,2.4
			c0,0.6-0.2,1.2-0.6,1.6c-0.4,0.5-1,0.7-1.6,0.7c-0.4,0-0.8-0.1-1.1-0.3c-0.4-0.3-0.7-0.6-1-1c-0.3-0.3-0.6-0.5-0.9-0.7
			c-0.3-0.2-0.7-0.2-1.1-0.2c-0.4,0-0.8,0.1-1.2,0.2c-0.2,0.1-0.4,0.3-0.6,0.5c-0.1,0.2-0.2,0.5-0.2,0.8c0,0.2,0,0.5,0,0.7v0.2v16.8
			c0,0.4-0.1,0.7-0.4,1C242.3,111.1,241.9,111.3,241.6,111.3z M239.1,110.2c0.1,0.1,0.2,0.1,0.3,0.1h2.2c0.1,0,0.2,0,0.3-0.1
			c0-0.1,0.1-0.2,0.1-0.4V93.2v-0.3c0-0.3,0-0.6,0-0.9c0.1-0.4,0.2-0.7,0.4-1c0.2-0.4,0.6-0.7,1-0.9c0.5-0.2,1.1-0.3,1.6-0.3
			c0.5,0,1.1,0.1,1.5,0.3c0.4,0.2,0.8,0.5,1.2,0.9c0.3,0.3,0.5,0.6,0.9,0.9c0.2,0.1,0.4,0.2,0.6,0.2c0.3,0,0.7-0.1,0.9-0.4
			c0.2-0.3,0.4-0.6,0.4-1c0-0.7-0.4-1.3-1-1.5c-0.9-0.4-1.9-0.5-2.9-0.5c-1.3,0-2.5,0.1-3.7,0.4c-1,0.2-1.9,0.5-2.8,1
			c-0.3,0.1-0.5,0.4-0.7,0.7c-0.1,0.5-0.2,1-0.2,1.5v17.7C239.1,110,239,110.1,239.1,110.2L239.1,110.2z M241.8,110.2"/>
		<path class="st1" d="M266.6,106.2c0,0.8-0.2,1.6-0.4,2.4c-0.3,0.6-0.8,1.1-1.5,1.4c-0.9,0.4-1.8,0.7-2.8,0.9
			c-1.1,0.2-2.1,0.3-3.2,0.3c-0.7,0-1.3,0-2-0.1c-0.8-0.1-1.6-0.3-2.4-0.7c-0.9-0.4-1.6-1-2.2-1.7c-0.6-0.9-1-2.1-0.9-3.2
			c0-1.1,0.2-2.1,0.8-3c0.6-0.9,1.4-1.6,2.3-2.1c1.1-0.6,2.3-1.1,3.5-1.5c1.7-0.6,3.4-1.2,5.2-1.6v-2.2c-0.1-0.5-0.1-1-0.3-1.5
			c-0.1-0.5-0.2-0.9-0.4-1.4c-0.2-0.5-0.6-0.9-1-1.2c-0.5-0.3-1.2-0.5-1.8-0.4c-0.5,0-1,0.1-1.5,0.3c-0.4,0.2-0.7,0.4-1,0.7
			c-0.2,0.3-0.4,0.5-0.6,0.8c-0.1,0.3-0.3,0.6-0.4,0.9l0,0c-0.1,0.5-0.4,0.9-0.7,1.3c-0.3,0.3-0.7,0.5-1.2,0.4
			c-0.4,0-0.9-0.2-1.2-0.4c-0.4-0.3-0.6-0.8-0.6-1.3c0-0.7,0.2-1.3,0.6-1.8c0.4-0.6,0.9-1.2,1.6-1.6c1.6-1.1,3.6-1.6,5.6-1.6
			c1.2-0.1,2.4,0.2,3.5,0.7c0.8,0.4,1.5,1,1.9,1.7c0.4,0.6,0.7,1.3,0.9,2.1c0.2,0.7,0.3,1.5,0.3,2.3l0,0L266.6,106.2z M263.1,99.1
			c-1.6,0.5-2.8,0.9-3.6,1.2c-0.8,0.3-1.5,0.6-2.1,1c-1.3,0.7-2.1,2-2.2,3.5c0,0.3,0,0.6,0.1,1c0.1,0.5,0.3,0.9,0.5,1.3
			c0.3,0.5,0.8,1,1.3,1.2c0.7,0.4,1.5,0.6,2.4,0.5c0.6,0,1.3-0.1,1.8-0.3c0.4-0.2,0.8-0.4,1-0.8c0.2-0.3,0.4-0.6,0.5-1
			c0.1-0.4,0.2-0.7,0.2-1.1L263.1,99.1L263.1,99.1z"/>
		<path class="st1" d="M258.7,111.6c-0.7,0-1.3,0-2-0.1c-0.9-0.1-1.7-0.4-2.5-0.7c-0.9-0.4-1.8-1.1-2.4-1.9c-0.7-1-1.1-2.3-1-3.5
			c0-1.2,0.3-2.3,0.9-3.3c0.6-0.9,1.5-1.7,2.5-2.3c1.1-0.6,2.3-1.2,3.5-1.6l0.5-0.2c1.4-0.5,2.9-1,4.4-1.3v-1.7c0-0.3,0-0.6-0.1-1
			c0-0.2-0.1-0.4-0.1-0.6c-0.1-0.4-0.2-0.8-0.4-1.2c-0.2-0.4-0.5-0.7-0.8-0.9c-0.5-0.3-1-0.4-1.6-0.4c-0.4,0-0.9,0.1-1.3,0.2
			c-0.3,0.1-0.6,0.3-0.9,0.6c-0.2,0.2-0.4,0.5-0.6,0.8c-0.1,0.3-0.3,0.6-0.4,0.9l-0.1,0.1c-0.2,0.5-0.4,1-0.7,1.4
			c-0.4,0.4-1,0.7-1.5,0.6c-0.5,0-1-0.2-1.4-0.6c-0.5-0.4-0.8-1-0.7-1.7c0-0.7,0.2-1.5,0.6-2.1c0.5-0.7,1-1.3,1.7-1.8
			c1.7-1.1,3.8-1.7,5.8-1.7l0,0c1.3,0,2.5,0.2,3.7,0.7c0.9,0.4,1.6,1.1,2.1,1.9c0.4,0.7,0.8,1.4,1,2.2c0,0.2,0,0.3,0.1,0.5
			c0.1,0.6,0.2,1.2,0.2,1.8l0,0l-0.1,11.2c0,0.9-0.2,1.7-0.5,2.6c-0.4,0.7-0.9,1.3-1.7,1.7c-0.9,0.5-1.9,0.8-2.9,0.9
			C260.9,111.5,259.8,111.6,258.7,111.6z M259.6,89.9c0.7,0,1.5,0.1,2.1,0.5c0.5,0.3,0.9,0.8,1.2,1.3c0.2,0.5,0.4,1,0.5,1.5
			c0,0.2,0,0.3,0.1,0.5c0.1,0.4,0.1,0.8,0.1,1.2v2.5l-0.4,0.1c-1.6,0.4-3.1,0.8-4.6,1.4l-0.5,0.2c-1.2,0.4-2.4,0.9-3.5,1.4
			c-0.9,0.5-1.6,1.2-2.1,2c-0.5,0.8-0.8,1.8-0.7,2.8c-0.1,1,0.2,2.1,0.8,2.9c0.5,0.7,1.2,1.3,2.1,1.6c0.7,0.3,1.5,0.5,2.2,0.6
			c0.6,0.1,1.3,0.1,1.9,0.1c1.1,0,2.1-0.1,3.2-0.3c0.9-0.1,1.8-0.4,2.6-0.8c0.5-0.2,1-0.7,1.3-1.2c0.3-0.7,0.4-1.5,0.4-2.2l0.1-11.2
			c0-0.6-0.1-1.1-0.2-1.7c0-0.2-0.1-0.4-0.1-0.5c-0.2-0.7-0.5-1.3-0.8-1.9c-0.4-0.7-1-1.2-1.7-1.5c-1-0.5-2.1-0.7-3.3-0.6l0,0
			c-1.9-0.1-3.7,0.5-5.3,1.5c-0.6,0.4-1.1,0.9-1.5,1.5c-0.3,0.5-0.5,1-0.5,1.6c0,0.4,0.1,0.7,0.4,1c0.2,0.2,0.5,0.3,0.8,0.3
			c0.3,0,0.6-0.1,0.8-0.3c0.3-0.4,0.5-0.8,0.6-1.2v-0.1l0,0c0.1-0.3,0.3-0.6,0.4-0.9c0.2-0.3,0.4-0.7,0.7-0.9
			c0.3-0.4,0.7-0.6,1.2-0.8C258.4,90,259,89.9,259.6,89.9L259.6,89.9z M259.5,109.3c-0.9,0-1.8-0.2-2.6-0.6
			c-0.6-0.3-1.1-0.8-1.5-1.4c-0.3-0.4-0.4-0.9-0.6-1.4c-0.1-0.3-0.1-0.7-0.1-1c0-1.6,0.9-3.1,2.4-3.9c0.7-0.4,1.4-0.8,2.2-1.1
			c0.7-0.3,1.9-0.6,3.6-1.2l0.6-0.2v7.3c0,0.3-0.1,0.6-0.1,0.8c0,0.1,0,0.2-0.1,0.3c-0.1,0.4-0.3,0.7-0.5,1l-0.1,0.2
			c-0.3,0.4-0.7,0.7-1.2,0.9C260.9,109.2,260.2,109.3,259.5,109.3z M262.6,99.7c-1.4,0.4-2.4,0.7-3,1c-0.7,0.3-1.4,0.6-2,1
			c-1.2,0.6-1.9,1.8-1.9,3.1c0,0.3,0,0.6,0.1,0.9c0.1,0.4,0.2,0.8,0.4,1.2c0.3,0.5,0.7,0.8,1.2,1.1c0.7,0.3,1.4,0.5,2.2,0.5
			c0.6,0,1.1-0.1,1.7-0.3c0.3-0.1,0.6-0.3,0.8-0.6l0.1-0.2c0.2-0.2,0.3-0.4,0.3-0.6c0-0.1,0-0.3,0.1-0.4c0.1-0.2,0.1-0.4,0.1-0.6
			L262.6,99.7L262.6,99.7z"/>
		<path class="st1" d="M273.1,85.3L273.1,85.3c0.8,0,1.5-0.3,2-0.9l0,0c0.5-0.5,0.7-1.2,0.7-2c0-0.7-0.3-1.4-0.9-1.9
			c-0.5-0.5-1.2-0.7-1.9-0.7c-0.7,0-1.5,0.3-2,0.8c-0.5,0.5-0.8,1.2-0.8,1.9c0,0.7,0.3,1.4,0.7,1.9
			C271.6,85.1,272.3,85.4,273.1,85.3z"/>
		<path class="st1" d="M274.1,88.1h-2.2c-0.4,0-0.8,0.1-1,0.4c-0.1,0.3-0.2,0.6-0.2,0.9v20.4c0,0.3,0,0.6,0.2,0.9
			c0.2,0.3,0.6,0.4,0.9,0.4h2.3c0.3,0,0.7-0.1,1-0.3c0.3-0.3,0.4-0.7,0.4-1.1V89.4c0-0.4-0.1-0.7-0.3-1
			C274.8,88.2,274.4,88.1,274.1,88.1z"/>
		<path class="st1" d="M297.1,109.8c0,0.2,0,0.4-0.1,0.7c-0.1,0.2-0.2,0.3-0.4,0.4h-2.4c-0.3,0-0.5-0.1-0.7-0.2
			c-0.2-0.2-0.2-0.5-0.2-0.7V95.5c0-0.6,0-1.2-0.1-1.9c-0.1-0.6-0.3-1.1-0.6-1.6c-0.4-0.6-0.9-1-1.5-1.3c-0.9-0.4-1.8-0.5-2.8-0.5
			c-0.9,0-1.7,0.1-2.5,0.4c-0.6,0.2-1,0.5-1.4,1c-0.3,0.4-0.4,0.8-0.5,1.2c-0.1,0.4-0.1,0.8-0.1,1.2v15.7c0,0.3,0,0.6-0.2,0.8
			c-0.2,0.2-0.4,0.2-0.7,0.2h-2.1c-0.2,0-0.5-0.1-0.6-0.3c-0.1-0.2-0.2-0.4-0.2-0.7V92.7c0-0.7,0.1-1.3,0.3-1.9
			c0.3-0.5,0.8-0.9,1.4-1.2c0.7-0.4,1.4-0.6,2.1-0.8c0.7-0.2,1.4-0.4,2.2-0.4c0.7-0.1,1.3-0.1,1.8-0.2h1.2c1.5-0.1,3.1,0.2,4.5,0.7
			c1,0.3,1.8,1,2.5,1.8c0.5,0.6,0.8,1.4,0.9,2.1c0.1,0.8,0.2,1.6,0.2,2.4L297.1,109.8L297.1,109.8z"/>
		<path class="st1" d="M296.6,111.3h-2.4c-0.4,0-0.7-0.1-1-0.3c-0.3-0.3-0.4-0.7-0.4-1.1V95.5c0-0.6,0-1.2-0.1-1.8
			c-0.1-0.5-0.2-1-0.5-1.4c-0.3-0.5-0.8-0.9-1.3-1.1c-0.8-0.3-1.7-0.5-2.6-0.4c-0.8,0-1.6,0.1-2.4,0.4c-0.5,0.2-0.9,0.5-1.2,0.8
			c-0.2,0.3-0.4,0.6-0.5,1c-0.1,0.4-0.1,0.7-0.1,1.1v15.7c0.1,0.4-0.1,0.9-0.4,1.2c-0.3,0.2-0.6,0.3-1,0.3h-2.1
			c-0.4,0-0.7-0.1-1-0.4c-0.2-0.3-0.3-0.6-0.3-1V92.7c0-0.7,0.1-1.5,0.4-2.2c0.4-0.6,0.9-1.1,1.6-1.4c0.7-0.4,1.5-0.7,2.2-0.9
			c0.7-0.2,1.5-0.4,2.3-0.5c0.7-0.1,1.3-0.1,1.8-0.2h1.2c1.6-0.1,3.2,0.2,4.7,0.7c1,0.4,2,1,2.7,1.9c0.5,0.7,0.9,1.5,1,2.4
			c0.1,0.8,0.2,1.7,0.2,2.5v14.6c0,0.3,0,0.6-0.1,0.9C297.2,111,296.9,111.2,296.6,111.3z M293.8,110.2c0.1,0.1,0.3,0.1,0.4,0.1h2.3
			v-0.1c0-0.2,0.1-0.3,0.1-0.5V95.1c0-0.8,0-1.6-0.2-2.4c-0.1-0.7-0.4-1.4-0.8-1.9c-0.6-0.7-1.4-1.3-2.3-1.6
			c-1.4-0.5-2.9-0.7-4.4-0.7h-1.2c-0.5,0-1.1,0.1-1.7,0.2c-0.7,0.1-1.4,0.2-2.1,0.4c-0.7,0.2-1.4,0.5-2.1,0.8
			c-0.5,0.2-0.9,0.5-1.2,1c-0.2,0.5-0.3,1.1-0.3,1.7v17.2c0,0.1,0,0.3,0,0.4c0.1,0.1,0.2,0.1,0.3,0.1h2.2c0.1,0,0.3,0,0.4-0.1
			c0-0.1,0-0.3,0-0.4V94.1c0-0.4,0-0.9,0.1-1.3c0.1-0.5,0.4-1,0.7-1.3c0.4-0.5,1-0.9,1.6-1.2c0.9-0.3,1.8-0.5,2.7-0.4
			c1,0,2,0.1,3,0.5c0.7,0.3,1.3,0.8,1.7,1.5c0.3,0.5,0.5,1.1,0.6,1.8c0.1,0.6,0.1,1.3,0.1,1.9v14.3
			C293.8,109.9,293.8,110.1,293.8,110.2L293.8,110.2z"/>
		<path class="st1" d="M316,106.2c0,0.8-0.1,1.6-0.4,2.4c-0.3,0.6-0.8,1.1-1.4,1.4c-0.9,0.4-1.8,0.7-2.8,0.9
			c-1.1,0.2-2.1,0.3-3.2,0.3c-0.7,0-1.3,0-2-0.1c-0.8-0.1-1.6-0.3-2.4-0.7c-0.9-0.4-1.6-1-2.2-1.8c-0.6-0.9-1-2.1-0.9-3.2
			c0-1.1,0.2-2.1,0.8-3c0.6-0.9,1.4-1.6,2.3-2.1c1.1-0.6,2.2-1.1,3.3-1.5c1.2-0.4,3-1,5.1-1.6v-2.1c0-0.6,0-1.1-0.1-1.6
			c0-0.5-0.2-0.9-0.4-1.4c-0.2-0.5-0.5-0.9-1-1.2c-0.5-0.3-1.2-0.5-1.8-0.4c-0.5,0-1,0.1-1.5,0.3c-0.4,0.2-0.7,0.4-1,0.7
			c-0.2,0.3-0.4,0.5-0.6,0.8c-0.1,0.3-0.3,0.6-0.4,0.9l0,0c-0.1,0.5-0.4,0.9-0.7,1.3c-0.3,0.3-0.7,0.5-1.2,0.4
			c-0.4,0-0.9-0.2-1.2-0.4c-0.4-0.3-0.6-0.8-0.6-1.3c0-0.7,0.2-1.3,0.6-1.8c0.4-0.6,1-1.1,1.6-1.5c1.6-1.1,3.6-1.6,5.6-1.6
			c1.2-0.1,2.4,0.2,3.5,0.7c0.8,0.4,1.5,1,1.9,1.7c0.4,0.6,0.6,1.3,0.8,2.1c0.1,0.8,0.2,1.5,0.2,2.3L316,106.2L316,106.2z
			 M312.3,99.1c-1.6,0.5-2.7,0.9-3.5,1.2c-0.7,0.3-1.4,0.6-2.1,1c-1.3,0.7-2.1,2.1-2.1,3.5c0,0.3,0,0.6,0.1,1
			c0.1,0.5,0.3,0.9,0.5,1.3c0.3,0.5,0.8,1,1.3,1.2c0.7,0.4,1.5,0.6,2.4,0.5c0.6,0,1.3-0.1,1.9-0.3c0.4-0.2,0.8-0.4,1-0.8
			c0.2-0.3,0.3-0.6,0.4-1c0.1-0.4,0.1-0.7,0.1-1.1L312.3,99.1L312.3,99.1z"/>
		<path class="st1" d="M308.2,111.6c-0.7,0-1.3,0-2-0.1c-0.9-0.1-1.7-0.4-2.5-0.7c-0.9-0.4-1.8-1.1-2.4-1.9c-0.7-1-1.1-2.3-1-3.5
			c0-1.2,0.3-2.3,0.9-3.3c0.6-0.9,1.5-1.7,2.5-2.3c1.1-0.6,2.2-1.2,3.4-1.6c1.1-0.4,2.6-0.8,4.8-1.5v-1.8c0-0.6,0-1.1-0.1-1.5
			c0-0.4-0.2-0.8-0.3-1.2c-0.2-0.4-0.4-0.7-0.8-0.9c-0.5-0.3-1-0.4-1.5-0.4c-0.4,0-0.9,0.1-1.3,0.2c-0.3,0.1-0.6,0.3-0.9,0.6
			c-0.2,0.2-0.4,0.5-0.5,0.8c-0.1,0.3-0.3,0.6-0.4,0.9l-0.1,0.1c-0.2,0.5-0.4,1-0.7,1.4c-0.4,0.4-1,0.7-1.5,0.6
			c-0.5,0-1-0.2-1.4-0.6c-0.5-0.4-0.8-1-0.7-1.7c0-0.7,0.2-1.5,0.6-2.1c0.5-0.7,1-1.3,1.7-1.8c1.7-1.1,3.8-1.7,5.8-1.7l0,0
			c1.3,0,2.5,0.2,3.7,0.7c0.9,0.4,1.6,1.1,2.1,1.9c0.4,0.7,0.7,1.4,0.8,2.2c0.1,0.8,0.2,1.6,0.2,2.4v11.3c0,0.9-0.1,1.7-0.4,2.6
			c-0.3,0.7-0.9,1.3-1.7,1.7c-0.9,0.5-1.9,0.8-2.9,0.9C310.4,111.5,309.3,111.6,308.2,111.6z M309.1,89.9c0.7,0,1.4,0.2,2.1,0.5
			c0.5,0.3,0.9,0.8,1.2,1.3c0.2,0.5,0.3,1,0.4,1.5c0,0.5,0.1,1,0.1,1.6v2.5l-0.3,0.1c-2.4,0.7-3.9,1.2-5.1,1.6
			c-1.1,0.4-2.3,0.9-3.3,1.5c-0.9,0.5-1.6,1.2-2.1,2c-0.5,0.8-0.8,1.8-0.7,2.8c-0.1,1,0.2,2.1,0.8,2.9c0.5,0.7,1.2,1.3,2.1,1.6
			c0.7,0.3,1.5,0.5,2.2,0.6c0.6,0.1,1.3,0.1,1.9,0.1c1.1,0,2.1-0.1,3.1-0.3c0.9-0.1,1.8-0.4,2.6-0.8c0.5-0.3,0.9-0.7,1.2-1.2
			c0.2-0.7,0.4-1.5,0.4-2.2V94.9c0-0.7,0-1.5-0.2-2.2c-0.1-0.7-0.4-1.3-0.7-1.9c-0.4-0.7-1-1.2-1.7-1.5c-1-0.5-2.1-0.7-3.3-0.6l0,0
			c-1.9-0.1-3.7,0.5-5.3,1.5c-0.6,0.4-1.1,0.9-1.4,1.5c-0.3,0.5-0.5,1-0.5,1.6c0,0.4,0.1,0.7,0.4,1c0.2,0.2,0.5,0.3,0.8,0.3
			c0.3,0,0.6-0.1,0.8-0.3c0.3-0.4,0.5-0.8,0.6-1.2v-0.1l0,0c0.1-0.3,0.3-0.6,0.4-0.9c0.2-0.3,0.4-0.7,0.7-0.9
			c0.3-0.4,0.7-0.6,1.2-0.8C307.9,90,308.5,89.9,309.1,89.9z M308.9,109.3c-0.9,0-1.8-0.2-2.6-0.6c-0.6-0.3-1.1-0.8-1.5-1.4
			c-0.3-0.4-0.5-0.9-0.6-1.4c-0.1-0.3-0.1-0.7-0.1-1c0-1.6,0.9-3.2,2.4-3.9c0.7-0.4,1.4-0.8,2.2-1.1c1.1-0.4,2.2-0.8,3.5-1.2
			l0.6-0.2v7.3c0,0.4,0,0.8-0.1,1.2c-0.1,0.4-0.2,0.8-0.5,1.2c-0.3,0.4-0.7,0.7-1.2,0.9C310.3,109.3,309.6,109.4,308.9,109.3z
			 M311.8,99.7c-1,0.3-2,0.6-2.8,1c-0.7,0.3-1.4,0.6-2,1c-1.2,0.6-1.9,1.8-1.9,3.1c0,0.3,0,0.6,0.1,0.9c0.1,0.4,0.2,0.8,0.5,1.2
			c0.3,0.5,0.7,0.8,1.2,1.1c0.7,0.3,1.4,0.5,2.2,0.5c0.6,0,1.1-0.1,1.7-0.3c0.3-0.1,0.6-0.3,0.8-0.6c0.2-0.2,0.3-0.5,0.3-0.8
			c0.1-0.3,0.1-0.7,0.1-1L311.8,99.7L311.8,99.7z"/>
		<path class="st0" d="M285.7,68c-1,1.8-2.3,3.4-3.9,4.7c-3.3,2.7-7.8,3.6-11.9,2.5c-4.1-0.9-7.5-3.6-9.4-7.3
			c-0.9-1.8-1.5-3.8-1.7-5.9c-0.2-2.3-0.1-4.5,0.4-6.8c0.5-2.2,1.3-4.4,2.5-6.3c1-1.8,2.4-3.3,4.1-4.5c1.6-1.2,3.4-2,5.3-2.4
			c2.1-0.4,4.2-0.3,6.2,0.2c2.2,0.5,4.3,1.5,6,3c1.5,1.4,2.7,3,3.5,4.9c0.8,1.9,1.3,3.8,1.4,5.8C288.6,60.1,287.7,64.3,285.7,68z"/>
		<path class="st2" d="M284.1,60.9c-1.6,7.4-6.4,11.8-12.5,11.2c-6.2-0.6-10.2-7.7-8.7-15.5s7.6-13,13.5-11.6
			C282.3,46.4,285.2,55.3,284.1,60.9z"/>
		
			<ellipse transform="matrix(7.741532e-02 -0.997 0.997 7.741532e-02 248.9403 315.1508)" class="st0" cx="294.8" cy="23.1" rx="9.8" ry="9.8"/>
		
			<ellipse transform="matrix(7.741532e-02 -0.997 0.997 7.741532e-02 249.4623 297.7928)" class="st0" cx="285.6" cy="14.1" rx="13.8" ry="13.8"/>
		<path class="st2" d="M276.7,18.4c-1.6,0-3.3,0.3-4.8,0.8c-0.7,0.2-1.2,0.6-1.6,1.2c-0.2,0.5-0.4,1.1-0.3,1.6l-0.3,6.5
			c-0.1,1.7-0.5,3.4-0.6,5.2l1.8,4.1c1.8,0.4,3.6,0.7,5.5,1c1.6,0.3,3.2,0.6,4.8,0.8l2.4,0.3c0.7,0.2,1.4,0.3,2.1,0.2
			c0.9-0.2,1.9-2.2,2.5-2.9c0.9-1.2,1.7-2.4,2.5-3.7c0.8-1.3,1.5-2.1,2.2-3.3c0.1-0.2,2-3.6,2.4-3.3c-1.7-1.9-3.8-3.4-6.1-4.6
			c-2.6-1.6-5.3-2.8-8.3-3.5C279.4,18.6,278,18.4,276.7,18.4z"/>
		
			<ellipse transform="matrix(7.741532e-02 -0.997 0.997 7.741532e-02 235.0963 285.3961)" class="st0" cx="271.8" cy="15.7" rx="10.9" ry="10.9"/>
		<ellipse transform="matrix(0.3992 -0.9169 0.9169 0.3992 156.0541 283.8835)" class="st2" cx="294.6" cy="22.9" rx="7.6" ry="8"/>
		<path class="st2" d="M269.1,24.4"/>
		
			<ellipse transform="matrix(0.2647 -0.9643 0.9643 0.2647 197.5576 285.7486)" class="st2" cx="286.2" cy="13.3" rx="10.7" ry="10.5"/>
		<path class="st0" d="M275.4,39.2c0.2,0.1,0.3,0.3,0.3,0.6c-0.1,0.2-0.2,0.3-0.4,0.3c-3.1-0.1-7.4-0.8-7-3.5
			c0.4-2.5,5.8-2.9,10.7-0.8c3.9,1.7,6.6,2.7,6.6,2.7c2.5-4.1,5.3-7.8,8.6-11.3c0.2-0.2,0.6-0.3,0.9-0.1l0,0c0.3,0.2,0.4,0.7,0.2,1
			c0,0,0,0,0,0.1c-3.3,3.9-6.2,8.1-8.5,12.6c-0.3,0.5-0.9,0.8-1.5,0.5c-3.2-1.6-13.3-6.2-13.5-3.7C271.8,38.5,274.5,39,275.4,39.2z"
			/>
		<path class="st0" d="M280.5,56.9c-1.3-1.9-4.5-2.4-5.4,0.4c0,0.2,0,0.4,0.1,0.4c0.1,0,0.1,0,0.2-0.1c1.4-1.2,3.2-0.2,4.5,0.8
			c0,0.1,0.1,0.1,0.2,0.1c0,0,0.1,0,0.1-0.1l0.6-0.9c0,0,0-0.1,0-0.1c0-0.1,0-0.1,0-0.2C280.6,57.2,280.6,57,280.5,56.9z"/>
		<path class="st0" d="M280,59.1c-0.2,0-0.3-0.1-0.4-0.2c-1.1-0.9-2.7-1.8-3.9-0.8c-0.1,0.1-0.4,0.2-0.6,0.2c-0.2,0-0.3-0.1-0.4-0.2
			c-0.1-0.2-0.1-0.5-0.1-0.8c0.3-1.2,1.2-2.1,2.4-2.4c1.5-0.2,2.9,0.5,3.8,1.7c0.1,0.1,0.2,0.3,0.3,0.4c0.1,0.1,0.1,0.3,0.1,0.4
			c0,0.1-0.1,0.2-0.1,0.3l-0.6,0.9c-0.1,0.1-0.2,0.2-0.3,0.2C280.1,59.1,280.1,59.1,280,59.1z M276.9,56.7c1.1,0.1,2.2,0.5,3,1.3
			l0.4-0.5l-0.2-0.3l0,0c-0.6-0.9-1.7-1.4-2.8-1.3c-0.6,0.1-1.2,0.5-1.4,1.1C276.1,56.8,276.5,56.7,276.9,56.7L276.9,56.7z"/>
		<path class="st0" d="M278.6,66.3c-3.4,2.6-11.3,2.8-12.4-2.4c0-0.3,0-0.7,0.3-0.7c0.1,0,0.3,0.1,0.4,0.2c3.5,3.8,8.3,2.4,11.4,1.1
			c0.1-0.1,0.3-0.1,0.4,0c0.1,0,0.1,0.1,0.2,0.2l0.5,0.6c0.1,0.1,0.1,0.1,0.1,0.2c0,0.1-0.1,0.2-0.1,0.2
			C279.1,65.9,278.9,66.1,278.6,66.3z"/>
		<path class="st0" d="M272.7,68.6c-1.1,0-2.2-0.2-3.3-0.5c-1.9-0.6-3.2-2.1-3.6-4c-0.1-0.3,0-0.7,0.2-1c0.1-0.2,0.4-0.3,0.6-0.3
			c0.3,0,0.5,0.1,0.7,0.3c3.3,3.5,7.8,2.2,10.9,1c0.3-0.1,0.5-0.1,0.8,0c0.1,0.1,0.2,0.2,0.3,0.3l0.2,0.3l0.2,0.4
			c0.1,0.1,0.2,0.3,0.2,0.5c0,0.2-0.1,0.4-0.3,0.6c-0.2,0.2-0.4,0.4-0.7,0.6l0,0C277.1,67.9,274.9,68.6,272.7,68.6z M266.7,63.8
			c0.4,1.5,1.5,2.8,3,3.2c2.9,0.9,6.1,0.5,8.6-1.2l0,0c0.2-0.1,0.4-0.3,0.5-0.5l-0.2-0.2l-0.2-0.3l0,0
			C275.2,66.3,270.4,67.7,266.7,63.8L266.7,63.8z"/>
		<path class="st0" d="M270.6,56.1c-1.4-1.9-4.5-2.4-5.3,0.6c0,0.2,0,0.4,0.1,0.4c0.1,0,0.1,0,0.2-0.1c1.4-1.2,3.2-0.3,4.5,0.7
			c0.1,0,0.1,0,0.2,0c0,0,0.1,0,0.1-0.1l0.6-1c0,0,0-0.1,0-0.1c0-0.1,0-0.1,0-0.2C270.7,56.3,270.7,56.2,270.6,56.1z"/>
		<path class="st0" d="M270.1,58.2c-0.2,0-0.3-0.1-0.4-0.2c-1.2-0.9-2.7-1.7-3.9-0.7c-0.1,0.1-0.3,0.2-0.5,0.2
			c-0.2,0-0.3-0.1-0.4-0.3c-0.1-0.2-0.2-0.5-0.1-0.8c0.2-1.2,1.2-2.1,2.4-2.4c1.5-0.2,2.9,0.4,3.8,1.6l0,0c0.1,0.1,0.2,0.3,0.3,0.4
			c0.1,0.1,0.1,0.3,0.1,0.4c0,0.1-0.1,0.2-0.1,0.3l-0.6,1c-0.1,0.1-0.2,0.2-0.3,0.2C270.2,58.2,270.2,58.3,270.1,58.2z M267,56
			c1.1,0.1,2.1,0.5,3,1.2l0.4-0.6l-0.2-0.3c-0.6-0.9-1.7-1.4-2.8-1.3c-0.7,0.1-1.2,0.6-1.4,1.2C266.3,56.1,266.6,56,267,56L267,56z"
			/>
		<path class="st0" d="M285.5,51.9l0.8-2.5c-5.5-3.8-11.1-7-18.6-5.9v0.4h-0.3l-3.5,5.3c7.1,4.5,16.3-1,17.1-0.5
			c0.2,1.9,1,7.2,4.7,7.1l-0.6-4.2L285.5,51.9z"/>
		<path class="st0" d="M282.9,44.8c-0.6-0.9-1-2-1.2-3.1c0-0.1-0.1-0.2-0.2-0.2c0,0-0.1,0-0.1,0.1c-0.8,0.7-1.1,1.9-0.6,2.9
			C281.6,46.8,282.2,47.3,282.9,44.8z"/>
		<path class="st0" d="M281.3,43.7c-0.8-1.9-7.2-6-20.3,0.6c-0.4,0.2-0.6,0.7-0.4,1.2c0.8,1.8,4.3,4.5,8.3,5.3L281.3,43.7z"/>
		<path class="st0" d="M272.1,21.8c-0.1-1.7-2.8-1.8-2.8-0.2c-0.1,2.5-0.3,5-0.4,7.4c0,0.8-0.6,7.2-0.6,8c0,0.4,0.1,0.7,0.3,1
			c0.8-0.4,2.8-1.2,2.9-2C271.8,32.5,272.2,23.7,272.1,21.8z"/>
		
			<ellipse transform="matrix(0.2647 -0.9643 0.9643 0.2647 185.4058 274.5021)" class="st2" cx="272.7" cy="15.7" rx="8.2" ry="7.7"/>
		<path class="st2" d="M270.2,23.5c0,0,10.9,1.9,12.6,1.6c1.7-0.3-1-7.9-1-7.9S270.5,14.9,270.2,23.5z"/>
		<path class="st0" d="M270.2,23.5l8.3,1.3c0.2,0,0.3,0.1,0.4,0.2l0,0c0.2,0.3,0.2,0.7-0.1,0.9c-0.1,0.1-0.2,0.1-0.3,0.1
			c-2.7,0.4-5.5,0.5-8.2,0.4L270.2,23.5L270.2,23.5z"/>
	</g>
</g>
<g>
	<path class="st1" d="M34.1,88.9c-14.1-3.1-20.5-6-19.7-11.6c0.3-1.8,1.3-4.3,3.3-6.6c4.2-4.7,11.8-9.1,19.9-8.1
		c6.4,0.8,11.6,5.3,14.8,10.3c2.8,4.5,4.1,9.4,3.5,12.6C54.6,92.3,47.4,91.8,34.1,88.9"/>
	<path class="st0" d="M36.8,65c14.8,2.4,21.6,5.1,21.1,10.9c-0.2,1.9-1.1,4.5-3.1,7c-4.1,5.2-11.7,10.1-20.2,9.6
		c-6.7-0.4-12.4-4.8-16-9.8c-3.2-4.5-4.8-9.5-4.3-12.9C15.2,62.6,22.7,62.6,36.8,65"/>
	<path class="st3" d="M39.4,80c-0.5-0.6-0.2-4.8-0.2-5.9h1.4c0.1-0.2,0.1-0.3,0.1-0.5c0,0,0-0.2-0.1-0.2c0,0-0.2,0-0.3,0
		c-0.4,0-0.8,0-1.1,0c0,0,0-2,0-2.1c-0.3,0-0.6,0.2-0.8,0.4c-0.2,0.2-0.3,0.4-0.5,0.6v1.1c-0.2,0-0.5,0-0.8,0
		c-0.2,0-0.2,0.1-0.2,0.3c0,0.1-0.1,0.2,0,0.3c0,0.1,0.3,0.1,0.4,0.1c0.2,0,0.4,0,0.6,0v3.5c0,2.5,0.2,4.2,2.9,3.4
		c0.1-0.1,0.2-0.1,0.2-0.4v0C40.5,80.1,39.7,80.4,39.4,80 M46.3,77.3c0-0.6,0-1.2,0-1.8c0-0.4-0.1-0.9-0.2-1.3
		c-0.4-0.9-1.5-1.1-2.4-1c0,0-0.1,0-0.1,0c-0.1,0-0.2,0-0.3,0.1c-0.5,0.2-1,0.4-1.4,0.7c-0.2,0.2-0.4,0.6-0.4,0.9
		c0,0.3,0.1,0.4,0.4,0.6c0.2,0.1,0.3,0.1,0.5,0c0.6-0.3,0.5-1.2,1.2-1.5c1.4-0.5,1.6,1,1.5,2.2c-1.5,0.4-3.6,0.9-3.9,2.4
		c-0.4,1.5,0.8,2.3,2.1,2.5c0.8,0.1,1.7,0,2.4-0.3C46.6,80.3,46.3,78.6,46.3,77.3 M44.4,80.2c-0.4,0.1-0.9,0-1.2-0.2
		c-0.3-0.2-0.4-0.6-0.5-1.1c-0.2-1.5,1.6-1.5,2.5-2h0.1C45.3,78.4,45.6,80,44.4,80.2"/>
	<path class="st3" d="M34.3,72c0-0.4,0.4-0.8,0.8-0.8c0.4,0,0.8,0.4,0.8,0.8c0,0.4-0.4,0.8-0.8,0.8C34.7,72.8,34.3,72.4,34.3,72"/>
	<path class="st3" d="M35.7,79.6v0.7v0.4c0,0.1,0,0.2-0.1,0.2c0,0,0,0,0,0c-0.1,0-0.2,0-0.3,0h-0.5c-0.1,0-0.2,0-0.3,0c0,0,0,0,0,0
		c-0.1,0-0.1-0.1-0.1-0.2v-0.4v-0.7v-4.4v-0.7v-0.4c0-0.1,0-0.2,0.1-0.2c0,0,0,0,0,0c0.1,0,0.2,0,0.3,0h0.5c0.1,0,0.2,0,0.3,0
		c0,0,0,0,0,0c0.1,0,0.1,0.1,0.1,0.2v0.4v0.7V79.6z"/>
	<path class="st3" d="M49.1,79.6v0.7v0.4c0,0.1,0,0.2-0.1,0.2c0,0,0,0,0,0c-0.1,0-0.2,0-0.3,0h-0.5c-0.1,0-0.2,0-0.3,0c0,0,0,0,0,0
		c-0.1,0-0.1-0.1-0.1-0.2v-0.4v-0.7v-4.4v-0.7v-4.7c0-0.1,0-0.2,0.1-0.2c0,0,0,0,0,0c0.1,0,0.2,0,0.3,0h0.5c0.1,0,0.2,0,0.3,0
		c0,0,0,0,0,0c0.1,0,0.1,0.1,0.1,0.2v4.7v0.7V79.6z"/>
	<path class="st2" d="M30.5,79.8c0,0,1.1-11.6,9.2-12.3c-7.2-0.6-10.4,7.5-10.6,11.7"/>
	<path class="st3" d="M29.4,75.4c0.4,1,0.7,1.9,1,2.9c0.1,0.5,0.3,0.9,0.2,1.4c0,0.2-0.1,0.7-0.3,0.8c0,0-0.1,0-0.2,0.1
		c-0.1,0-0.2,0-0.3,0c-0.1,0-0.1,0-0.2,0c0,0-0.1,0-0.1,0c-0.1,0-0.1-0.1-0.1-0.2c-0.1-0.2-0.2-0.4-0.3-0.6
		c-0.1-0.3-0.2-0.6-0.2-0.8c-0.1-0.3-0.1-0.6-0.2-0.8c-0.1-0.2-0.1-0.4-0.2-0.6c-0.6-1.5-1.2-3-2.1-4.3c-0.1-0.2-0.2-0.3-0.3-0.5
		c-0.1-0.1-0.2-0.3-0.3-0.4c-0.1-0.1-0.2-0.2-0.3-0.3c-0.1-0.1-0.2-0.2-0.3-0.3c0,0,0-0.1,0-0.1c0-0.1,0-0.2,0.1-0.2
		c0.1-0.1,0.2-0.2,0.4-0.3c0.1,0,0.1-0.1,0.2-0.1c0.1,0,0.1-0.1,0.2-0.1c0.2,0,0.4,0.1,0.5,0.2c0.1,0.1,0.3,0.2,0.4,0.3
		c0.2,0.2,0.4,0.5,0.6,0.8c0.1,0.1,0.1,0.2,0.2,0.3c0.2,0.3,0.5,0.7,0.7,1c0.2,0.3,0.4,0.7,0.6,1.1C29,74.6,29.2,75,29.4,75.4"/>
	<path class="st1" d="M24.5,70.5c0,0-2.2-1.9-5.9-2.5c2.8,0.1,6.1,2.2,6.1,2.2s0-2.2-2.1-3.2c-1.2-0.6-2.9-0.5-6.6,0.7
		c2.3,1.7,3.5,3.1,4.8,3.5c1.4,0.4,2.5,0.1,3.1-0.2C24.3,70.7,24.5,70.5,24.5,70.5 M23.5,75.3c-0.1-2,1.2-4.5,1.2-4.5
		s-0.4,0-0.8,0.3c-0.5,0.2-1,0.7-1.3,1.5c-0.3,0.9-0.2,2.1,0.9,4.7c1.1-1.8,2-2.7,2.2-3.6C26,72,25,71,25,71S23.7,72.7,23.5,75.3
		 M26.4,67.1c-0.3,0.1-0.5,0.3-0.7,0.5c-1.2,1.2-0.7,2.7-0.7,2.7s1.5-2,3.2-2.9c0.1-0.1,0.2-0.1,0.3-0.1c-2.3,1.3-3.3,3.2-3.3,3.2
		s1,0.3,2.1-0.2c0.2-0.1,0.4-0.2,0.5-0.3c0.8-0.6,1.2-1.8,2.4-3.5C28.3,66.5,27.2,66.7,26.4,67.1"/>
	<path class="st2" d="M37,84.3v4.4c0,0.2-0.2,0.1-0.3,0.1h-0.4c-0.2,0-0.1,0-0.1-0.1v-4.4h-0.6c-0.1,0-0.2,0-0.2-0.1
		c0-0.3,0-0.3,0.2-0.3h0.6c0-0.6,0.1-1.1,0.3-1.6c0.2-0.5,0.7-0.9,1.2-0.9c0.3,0,0.4,0.1,0.4,0.4c0,0.2-0.1,0.3-0.3,0.3
		c0,0-0.3,0-0.3,0c-0.4,0-0.8,0.4-0.8,1.1c0,0.4,0.1,0.6,0.1,0.8h1c0.2,0,0.2,0,0.2,0.3c0,0.1-0.1,0.1-0.2,0.1H37z"/>
	<path class="st2" d="M38.9,87.2h-0.3c-0.1,0-0.1-0.1-0.1-0.2v-2.4c0-0.2,0-0.3,0.1-0.4c0.2-0.1,0.5-0.2,0.9-0.2
		c0.6,0,0.7,0.3,0.7,0.4c0,0.2-0.1,0.3-0.3,0.3c-0.1,0-0.2-0.1-0.3-0.2c-0.1-0.1-0.1-0.1-0.3-0.1c-0.3,0-0.3,0.2-0.3,0.3V87
		C39.1,87.1,39,87.2,38.9,87.2"/>
	<path class="st2" d="M39.1,87c0,0.1-0.1,0.1-0.2,0.1h-0.3c-0.1,0-0.1,0-0.1-0.1v-2.4c0-0.2,0-0.3,0.1-0.4c0.2-0.1,0.5-0.2,0.9-0.2
		c0.3,0,0.6,0.1,0.6,0.3c0,0.1-0.1,0.3-0.2,0.3c-0.1,0-0.1,0-0.2-0.2c-0.1-0.1-0.1-0.1-0.3-0.1c-0.3,0-0.3,0.3-0.3,0.4V87z"/>
	<path class="st2" d="M41.9,87.2c-0.2,0-0.8-0.1-1.2-0.7c-0.2-0.3-0.2-0.7-0.2-0.9c0-0.4,0.1-0.7,0.2-1c0.1-0.2,0.4-0.7,1.1-0.7
		c1,0,1.2,0.9,1.2,1.1c0,0.2-0.2,0.2-0.2,0.3l-1.7,0.3c0.1,0.6,0.4,1.1,0.8,1.1c0.3,0,0.5-0.2,0.7-0.5c0.1-0.1,0.1-0.2,0.2-0.2
		c0.1,0,0.2,0.1,0.2,0.2C43.1,86.2,42.9,87.2,41.9,87.2 M41.8,84.4c-0.5,0-0.6,0.4-0.7,0.7l1.2-0.2C42.3,84.6,42.1,84.4,41.8,84.4"
		/>
	<path class="st2" d="M41,85.5c0,0.8,0.5,1.2,0.9,1.2c0.3,0,0.6-0.2,0.8-0.5c0.1-0.1,0.1-0.2,0.2-0.2c0,0,0.1,0,0.1,0.1
		c0,0.2-0.3,1-1.2,1c-0.3,0-0.8-0.1-1.1-0.7c-0.1-0.3-0.2-0.6-0.2-0.9c0-0.4,0.1-0.7,0.2-0.9c0.1-0.1,0.4-0.6,1.1-0.6
		c0.9,0,1.1,0.8,1.1,1c0,0.2-0.1,0.2-0.2,0.2L41,85.5z M42.4,85c0-0.4-0.3-0.7-0.6-0.7c-0.5,0-0.7,0.4-0.8,0.9L42.4,85z"/>
	<path class="st2" d="M44.6,87.2c-0.8,0-1.1-0.5-1.1-0.7c0-0.2,0.2-0.3,0.3-0.3c0.2,0,0.3,0.1,0.3,0.2c0,0,0,0.1,0.1,0.1
		c0.1,0.1,0.2,0.3,0.4,0.3c0.3,0,0.4-0.2,0.4-0.4c0-0.3-0.3-0.4-0.5-0.5c-0.5-0.2-0.9-0.4-0.9-1c0-0.4,0.3-0.9,1-0.9
		c0.7,0,1,0.4,1,0.7c0,0.2-0.1,0.3-0.3,0.3c-0.2,0-0.3-0.1-0.3-0.2l0,0c-0.1-0.1-0.2-0.3-0.4-0.3c-0.3,0-0.4,0.2-0.4,0.4
		c0,0.3,0.2,0.4,0.4,0.5l0,0l0.3,0.1c0.3,0.1,0.8,0.4,0.8,1c0,0.3-0.1,0.5-0.3,0.7C45,87.2,44.7,87.2,44.6,87.2"/>
	<path class="st2" d="M44.8,85.4c0.3,0.1,0.7,0.4,0.7,0.9c0,0.2-0.1,0.5-0.3,0.6c-0.2,0.2-0.6,0.2-0.7,0.2c-0.8,0-1-0.5-1-0.7
		c0-0.2,0.1-0.3,0.2-0.3c0.1,0,0.2,0.1,0.2,0.2c0,0,0,0.1,0.1,0.1c0.1,0.1,0.2,0.3,0.5,0.3c0.3,0,0.4-0.2,0.4-0.4
		c0-0.4-0.3-0.5-0.6-0.6c-0.5-0.2-0.9-0.4-0.9-1c0-0.4,0.3-0.8,0.9-0.8c0.7,0,0.9,0.4,0.9,0.6c0,0.1-0.1,0.2-0.2,0.2
		c-0.2,0-0.2-0.1-0.3-0.2c-0.1-0.1-0.2-0.3-0.4-0.3c-0.3,0-0.4,0.3-0.4,0.4c0,0.3,0.3,0.4,0.5,0.5L44.8,85.4z"/>
	<path class="st2" d="M48.5,87.2h-0.3c-0.1,0-0.1-0.1-0.1-0.3v-1.9c0-0.1,0-0.3-0.1-0.4c-0.1-0.2-0.2-0.3-0.4-0.3
		c-0.2,0-0.4,0.1-0.6,0.3v2.2c0,0.1-0.1,0.3-0.3,0.3h-0.3c-0.2,0-0.2-0.2-0.2-0.3v-4.2c0-0.1,0.1-0.3,0.2-0.3h0.3
		c0.1,0,0.3,0.1,0.3,0.3v1.5c0-0.1,0.4-0.3,0.8-0.3c0.5,0,0.9,0.2,0.9,1.1v1.9C48.7,87,48.7,87.2,48.5,87.2"/>
	<path class="st2" d="M48.1,85.1c0-0.1,0-0.3-0.1-0.4c-0.1-0.2-0.3-0.3-0.5-0.3c-0.3,0-0.5,0.1-0.7,0.3v2.3c0,0.1,0,0.1-0.1,0.1
		h-0.3c-0.1,0-0.2,0-0.2-0.1v-4.2c0-0.1,0.1-0.1,0.2-0.1h0.3c0.1,0,0.1,0,0.1,0.1v1.6c0.2-0.1,0.4-0.4,0.9-0.4c0.9,0,1,0.8,1,1v1.9
		c0,0.1-0.1,0.1-0.2,0.1h-0.3c-0.1,0-0.1,0-0.1-0.1V85.1z"/>
</g>
<g>
	<g>
		<path class="st4" d="M85.4,87.6c-4.4,0-8-3.7-8-8.3c0-4.6,3.6-8.3,8-8.3h45.6c4.4,0,8,3.7,8,8.3c0,4.6-3.6,8.3-8,8.3H85.4z"/>
		<path class="st5" d="M85.4,72.3c-3.7,0-6.6,3.1-6.6,7c0,3.9,2.9,7,6.6,7h45.6c3.7,0,6.6-3.1,6.6-7c0-3.9-2.9-7-6.6-7H85.4z"/>
	</g>
	<g>
		<path class="st6" d="M94.3,80.3v-5.9h2.2c1.1,0,1.8,0.4,1.8,1.5c0,0.5-0.2,1-0.7,1.2v0c0.8,0.1,1.2,0.7,1.2,1.5
			c0,1.2-1.1,1.7-2.1,1.7H94.3z M95.8,76.7H96c0.4,0,0.8-0.1,0.8-0.6c0-0.5-0.5-0.6-0.9-0.6h-0.1V76.7z M95.8,79.1H96
			c0.5,0,1.2,0,1.2-0.6c0-0.7-0.8-0.6-1.3-0.6h-0.2V79.1z"/>
		<path class="st6" d="M100.9,74.9c0,0.4-0.4,0.8-0.8,0.8c-0.4,0-0.8-0.4-0.8-0.8s0.4-0.8,0.8-0.8C100.6,74.1,100.9,74.5,100.9,74.9
			z M100.8,80.3h-1.4v-4h1.4V80.3z"/>
		<path class="st6" d="M105.8,78.5h-3c0,0.6,0.3,0.9,0.9,0.9c0.3,0,0.5-0.1,0.7-0.4h1.4c-0.1,0.5-0.4,0.8-0.8,1
			c-0.4,0.2-0.8,0.3-1.3,0.3c-1.3,0-2.3-0.8-2.3-2.1c0-1.3,0.9-2.2,2.2-2.2c1.4,0,2.2,0.9,2.2,2.2V78.5z M104.4,77.7
			c-0.1-0.4-0.4-0.6-0.8-0.6c-0.4,0-0.8,0.2-0.8,0.6H104.4z"/>
		<path class="st6" d="M109.3,79.8L109.3,79.8c-0.3,0.4-0.8,0.6-1.2,0.6c-1.2,0-2-1-2-2.2c0-1.2,0.8-2.1,2-2.1c0.5,0,1,0.2,1.3,0.5
			v-2.3h1.4v5.9h-1.4V79.8z M107.5,78.3c0,0.5,0.3,0.9,0.9,0.9c0.6,0,0.9-0.4,0.9-0.9c0-0.5-0.3-0.9-0.9-0.9
			C107.8,77.4,107.5,77.8,107.5,78.3z"/>
		<path class="st6" d="M112.9,76.9L112.9,76.9c0.3-0.5,0.8-0.7,1.3-0.7h0.3v1.4c-0.2-0.1-0.4-0.1-0.6-0.1c-0.8,0-1,0.5-1,1.2v1.6
			h-1.4v-4h1.4V76.9z"/>
		<path class="st6" d="M119.4,78.3c0,1.4-1.1,2.1-2.4,2.1c-1.3,0-2.4-0.8-2.4-2.1c0-1.4,1.1-2.2,2.4-2.2
			C118.3,76.1,119.4,76.9,119.4,78.3z M116.1,78.3c0,0.5,0.3,0.9,0.9,0.9c0.6,0,0.9-0.4,0.9-0.9c0-0.5-0.3-0.9-0.9-0.9
			C116.4,77.4,116.1,77.8,116.1,78.3z"/>
		<path class="st6" d="M121.3,76.8L121.3,76.8c0.3-0.5,0.7-0.7,1.3-0.7c1.1,0,1.5,0.7,1.5,1.7v2.5h-1.4v-2c0-0.4,0.1-1.1-0.6-1.1
			c-0.6,0-0.7,0.4-0.7,0.9v2.1h-1.4v-4h1.4V76.8z"/>
		<path class="st6" d="M126.4,77.7l1.5-1.5h2l-2,1.9l2.1,2.2h-2l-1.6-1.6v1.6H125v-5.9h1.4V77.7z"/>
		<path class="st6" d="M134.6,80.3h-1.4v-0.4h0c-0.3,0.4-0.7,0.6-1.2,0.6c-1.2,0-2-1-2-2.2c0-1.2,0.8-2.1,2-2.1c0.5,0,1,0.2,1.3,0.5
			v-0.4h1.4V80.3z M131.4,78.3c0,0.5,0.3,0.9,0.9,0.9c0.6,0,0.9-0.4,0.9-0.9c0-0.5-0.3-0.9-0.9-0.9
			C131.7,77.4,131.4,77.8,131.4,78.3z"/>
	</g>
	<g>
		<path class="st7" d="M96.2,81.9c-0.2-0.2-0.4-0.3-0.7-0.3c-0.6,0-0.9,0.5-0.9,0.9c0,0.5,0.3,0.9,0.9,0.9c0.2,0,0.5-0.1,0.7-0.3
			v0.6C96,83.9,95.8,84,95.6,84c-0.8,0-1.5-0.7-1.5-1.4c0-0.8,0.6-1.4,1.5-1.4c0.2,0,0.5,0.1,0.7,0.2V81.9z"/>
		<path class="st7" d="M98.6,83c0,0.5-0.4,0.9-1,0.9c-0.6,0-1-0.4-1-0.9c0-0.5,0.4-0.9,1-0.9C98.2,82.1,98.6,82.5,98.6,83z M97.1,83
			c0,0.2,0.2,0.5,0.5,0.5c0.3,0,0.5-0.3,0.5-0.5c0-0.2-0.2-0.5-0.5-0.5C97.3,82.5,97.1,82.8,97.1,83z"/>
		<path class="st7" d="M100.2,83.7L100.2,83.7c-0.1,0.1-0.3,0.2-0.5,0.2c-0.6,0-0.9-0.5-0.9-0.9c0-0.5,0.3-0.9,0.9-0.9
			c0.2,0,0.4,0.1,0.5,0.2h0v-1.1h0.6v2.7h-0.6V83.7z M100.3,83c0-0.2-0.2-0.5-0.5-0.5c-0.3,0-0.5,0.3-0.5,0.5c0,0.2,0.2,0.5,0.5,0.5
			C100.1,83.5,100.3,83.2,100.3,83z"/>
		<path class="st7" d="M102.9,83.5v0.4h-1.8l1-1.3h-0.8v-0.4h1.7l-1,1.3H102.9z"/>
		<path class="st7" d="M104.7,83.1c0,0.2,0.1,0.5,0.4,0.5c0.2,0,0.3-0.1,0.4-0.2l0.5,0.1c-0.1,0.4-0.5,0.5-0.9,0.5
			c-0.6,0-1-0.4-1-0.9c0-0.5,0.3-1,0.9-1c0.6,0,0.9,0.4,0.9,1v0.1H104.7z M105.5,82.8c0-0.2-0.2-0.4-0.4-0.4c-0.2,0-0.3,0.2-0.4,0.4
			H105.5z"/>
		<path class="st7" d="M106.9,82.3L106.9,82.3c0.1-0.2,0.3-0.2,0.5-0.2c0.5,0,0.7,0.3,0.7,0.7v1.1h-0.6V83c0-0.2,0-0.5-0.3-0.5
			c-0.3,0-0.3,0.3-0.3,0.5v0.9h-0.6v-1.8h0.6V82.3z"/>
		<path class="st7" d="M109.1,82.3L109.1,82.3c0.1-0.2,0.3-0.2,0.5-0.2c0.5,0,0.7,0.3,0.7,0.7v1.1h-0.6V83c0-0.2,0-0.5-0.3-0.5
			c-0.3,0-0.3,0.3-0.3,0.5v0.9h-0.6v-1.8h0.6V82.3z"/>
		<path class="st7" d="M112.3,83.1c0,0.2,0.1,0.5,0.4,0.5c0.2,0,0.3-0.1,0.4-0.2l0.5,0.1c-0.1,0.4-0.5,0.5-0.9,0.5
			c-0.6,0-1-0.4-1-0.9c0-0.5,0.3-1,0.9-1c0.6,0,0.9,0.4,0.9,1v0.1H112.3z M113,82.8c0-0.2-0.2-0.4-0.4-0.4c-0.2,0-0.3,0.2-0.4,0.4
			H113z"/>
		<path class="st7" d="M115.8,82.3L115.8,82.3c0.1-0.2,0.3-0.2,0.5-0.2c0.5,0,0.7,0.3,0.7,0.7v1.1h-0.6V83c0-0.2,0-0.5-0.3-0.5
			c-0.3,0-0.3,0.3-0.3,0.5v0.9h-0.6v-1.8h0.6V82.3z"/>
		<path class="st7" d="M119.4,82.5c-0.1-0.1-0.2-0.1-0.3-0.1c-0.1,0-0.2,0.1-0.2,0.2c0,0.1,0.2,0.2,0.4,0.2c0.2,0.1,0.4,0.2,0.4,0.5
			c0,0.4-0.3,0.6-0.8,0.6c-0.3,0-0.5-0.1-0.7-0.3l0.3-0.3c0.1,0.1,0.2,0.2,0.4,0.2c0.1,0,0.2-0.1,0.2-0.2c0-0.2-0.2-0.2-0.4-0.3
			c-0.2-0.1-0.4-0.2-0.4-0.5c0-0.3,0.3-0.6,0.6-0.6c0.2,0,0.5,0.1,0.6,0.2L119.4,82.5z"/>
		<path class="st7" d="M120.7,82.8L120.7,82.8l0.6-0.6h0.7l-0.8,0.8l0.9,1h-0.7l-0.6-0.7h0v0.7h-0.6v-2.7h0.6V82.8z"/>
		<path class="st7" d="M123.8,83.1c0,0.2,0.1,0.5,0.4,0.5c0.2,0,0.3-0.1,0.4-0.2l0.5,0.1c-0.1,0.4-0.5,0.5-0.9,0.5
			c-0.6,0-1-0.4-1-0.9c0-0.5,0.3-1,0.9-1c0.6,0,0.9,0.4,0.9,1v0.1H123.8z M124.6,82.8c0-0.2-0.2-0.4-0.4-0.4c-0.2,0-0.3,0.2-0.4,0.4
			H124.6z"/>
		<path class="st7" d="M128.1,82.7c-0.1-0.1-0.2-0.2-0.4-0.2c-0.3,0-0.5,0.3-0.5,0.5c0,0.3,0.2,0.5,0.5,0.5c0.1,0,0.3-0.1,0.4-0.2
			v0.5c-0.1,0.1-0.3,0.1-0.5,0.1c-0.6,0-1-0.4-1-0.9c0-0.5,0.4-0.9,1-0.9c0.2,0,0.3,0,0.4,0.1V82.7z"/>
		<path class="st7" d="M129,83.1c0,0.2,0.1,0.5,0.4,0.5c0.2,0,0.3-0.1,0.4-0.2l0.5,0.1c-0.1,0.4-0.5,0.5-0.9,0.5c-0.6,0-1-0.4-1-0.9
			c0-0.5,0.3-1,0.9-1c0.6,0,0.9,0.4,0.9,1v0.1H129z M129.7,82.8c0-0.2-0.2-0.4-0.4-0.4c-0.2,0-0.3,0.2-0.4,0.4H129.7z"/>
		<path class="st7" d="M131.1,82.3L131.1,82.3c0.1-0.2,0.3-0.2,0.5-0.2c0.5,0,0.7,0.3,0.7,0.7v1.1h-0.6V83c0-0.2,0-0.5-0.3-0.5
			c-0.3,0-0.3,0.3-0.3,0.5v0.9h-0.6v-1.8h0.6V82.3z"/>
		<path class="st7" d="M132.5,82.1h0.6l0.5,0.9l0.5-0.9h0.6l-1.3,2.4h-0.6l0.5-0.9L132.5,82.1z"/>
		<g>
			<path class="st7" d="M103.8,83.9h-0.6v-1.8h0.6V83.9z"/>
			<circle class="st7" cx="103.5" cy="81.4" r="0.3"/>
		</g>
		<g>
			<path class="st7" d="M111.3,83.9h-0.6v-1.8h0.6V83.9z"/>
			<circle class="st7" cx="111" cy="81.4" r="0.3"/>
		</g>
		<g>
			<path class="st7" d="M118,83.9h-0.6v-1.8h0.6V83.9z"/>
			<circle class="st7" cx="117.7" cy="81.4" r="0.3"/>
		</g>
		<g>
			<path class="st7" d="M122.9,83.9h-0.6v-1.8h0.6V83.9z"/>
			<circle class="st7" cx="122.6" cy="81.4" r="0.3"/>
		</g>
	</g>
	<g>
		<g>
			<path class="st7" d="M89.9,73.5c-1.2-1.6-2.9-2.8-4.8-3.4l0,0l-0.6-0.2c-0.8-0.2-1.6-0.3-2.4-0.3c-5.3,0-9.7,4.3-9.7,9.7
				c0,2.6,1,5.1,2.9,6.9l0.4,0.4l0.1-0.6c0.1-0.4,0.2-0.9,0.4-1.5c0.3,0.3,0.6,0.5,0.9,0.7c0,1,0.1,1.8,0.1,2.3l0,0.2l0.1,0.1
				c1.4,0.8,3,1.2,4.6,1.2c5.3,0,9.7-4.3,9.7-9.7C91.8,77.2,91.1,75.2,89.9,73.5z"/>
			<g>
				<path class="st6" d="M75.2,85.2c-0.7-0.8-1.2-1.7-1.6-2.7c-0.4-1-0.6-2.1-0.6-3.1c0-2.4,0.9-4.7,2.6-6.4c1.7-1.7,4-2.6,6.4-2.6
					c0.4,0,0.9,0,1.3,0.1l0.2,0l-0.2,0.2c-1.8,1.6-5,5.1-6.9,10.7c-0.5,1.5-0.9,2.9-1.1,3.9l-0.1,0.2L75.2,85.2z"/>
				<path class="st6" d="M82.1,88.3c-1.4,0-2.9-0.3-4.1-1l-0.1,0l0-0.1c-0.1-1.3-0.3-4.7,1.1-8.5c1.7-4.3,4.6-7.1,5.8-8l0,0l0.1,0
					c1.7,0.6,3.3,1.7,4.4,3.1c1.2,1.6,1.8,3.5,1.8,5.4c0,2.4-0.9,4.7-2.6,6.4C86.8,87.4,84.5,88.3,82.1,88.3L82.1,88.3z"/>
			</g>
			<g>
				<path class="st2" d="M73.9,81c0-4.9,3.5-9,8.2-9.9l-0.3-0.4c0,0-4.8,0.4-7.2,4.3C73.5,77,73.6,79.3,73.9,81L73.9,81z"/>
				<g>
					<path class="st8" d="M80.6,86.8c-0.9,0-1.8-0.1-2.7-0.3c0,0.3,0,0.6,0.1,0.8l0,0.1l0.1,0c1.3,0.7,2.7,1,4.1,1
						c2.4,0,4.7-0.9,6.4-2.6c1.5-1.5,2.4-3.4,2.6-5.5C89.2,84.1,85.2,86.8,80.6,86.8z"/>
					<path class="st9" d="M89.3,73.9c-1.1-1.5-2.7-2.6-4.4-3.1l-0.1,0l0,0c-0.4,0.4-1.1,0.9-1.8,1.7c1,1.8,3,2.9,5.1,2.9
						c0.7,0,1.3-0.1,1.9-0.3C89.9,74.7,89.6,74.3,89.3,73.9z"/>
				</g>
			</g>
			<g>
				<circle class="st7" cx="82.7" cy="79" r="2.1"/>
				<ellipse class="st7" cx="83.5" cy="85.1" rx="2.1" ry="1.6"/>
				
					<ellipse transform="matrix(0.4322 -0.9018 0.9018 0.4322 -23.2188 127.2032)" class="st7" cx="89.4" cy="82" rx="1.9" ry="0.9"/>
				<ellipse transform="matrix(0.6495 -0.7603 0.7603 0.6495 -30.4652 84.7619)" class="st7" cx="76.7" cy="75.4" rx="2" ry="1.5"/>
				<ellipse transform="matrix(0.9205 -0.3908 0.3908 0.9205 -21.8328 36.37)" class="st7" cx="78.4" cy="71.8" rx="1.5" ry="0.6"/>
				
					<ellipse transform="matrix(0.9986 -5.302520e-02 5.302520e-02 0.9986 -4.137 4.0271)" class="st7" cx="73.8" cy="80" rx="0.6" ry="1.8"/>
				<ellipse transform="matrix(0.9738 -0.2273 0.2273 0.9738 -14.9703 22.0578)" class="st7" cx="88.3" cy="76" rx="1.1" ry="1.5"/>
			</g>
		</g>
		<g>
			<path class="st7" d="M87.4,61.7c-0.4,0-0.8,0-1.2,0.1c0.1-0.4,0.2-0.8,0.5-1.3c0.4-0.6,1.1-0.8,1.4-0.9c0,0,0,0.1,0,0.1
				c0.1,0.3,0.4,0.4,0.7,0.2c0.3-0.1,0.4-0.4,0.2-0.7C89,59,88.7,58.9,88.5,59c-0.1,0.1-0.2,0.2-0.3,0.3c-0.2,0-1.1,0.1-2,1.2
				c-0.4,0.5-0.5,1-0.6,1.5c-0.9,0.3-1.8,0.8-2.5,1.4c-0.2-0.3-0.5-0.6-0.8-1c-0.6-0.6-1.3-0.9-1.6-0.9c0,0,0-0.1,0-0.1
				c0-0.3-0.3-0.5-0.6-0.4c-0.3,0-0.5,0.3-0.4,0.6c0,0.3,0.3,0.5,0.6,0.4c0.1,0,0.2-0.1,0.3-0.2c0.2,0.1,0.7,0.4,1.3,1
				c0.3,0.4,0.6,0.8,0.8,1.1c-1,1.1-1.5,2.5-1.5,4.1c0,3.5,2.8,6.3,6.3,6.3c3.5,0,6.3-2.8,6.3-6.3C93.7,64.5,90.9,61.7,87.4,61.7z"
				/>
			<g>
				<circle class="st2" cx="87.4" cy="68" r="5.6"/>
				<g>
					<g>
						
							<ellipse transform="matrix(0.9685 -0.2489 0.2489 0.9685 -14.4716 24.7282)" class="st7" cx="90.5" cy="69.6" rx="0.7" ry="0.6"/>
						
							<ellipse transform="matrix(0.9685 -0.2492 0.2492 0.9685 -14.472 24.7624)" class="st6" cx="90.6" cy="69.5" rx="0.6" ry="0.4"/>
						
							<ellipse transform="matrix(0.9684 -0.2492 0.2492 0.9684 -14.45 24.7222)" class="st2" cx="90.4" cy="69.4" rx="0.2" ry="0.2"/>
					</g>
					<path class="st7" d="M84,70.2c0.1-0.1,0.2-0.2,0.2-0.2s0.5,2.5,2.8,2.8c3.3,0.6,4-2.3,4-2.3l0.4-0.3c0,0-2,0.7-3.8,0.7
						c-1.8,0-3.1-1.2-3.1-1.2s0.1-0.1,0.2-0.1c0.2-0.1,0.4-0.1,0.4-0.1s-0.6-0.1-1,0.2c-0.4,0.2-0.3,0.8-0.3,0.8S83.9,70.3,84,70.2z
						"/>
					<path class="st6" d="M85.2,71.2c0,0,1,0,1.3,0.4c0.3,0.4,0.4,0.6,0.4,0.6s-0.1-0.4-0.1-0.4c0,0,0.5,0,0.8,0.3
						c0.2,0.3,0.3,0.6,0.3,0.6s-1,0.1-1.7-0.3C85.4,71.8,85.2,71.2,85.2,71.2z"/>
					<path class="st7" d="M87.4,67.2c-0.3-0.8-0.8-1.4-1.2-1.3C86.1,65.9,86,66,86,66c0.1,0.2,0.4,0.6,0.4,0.6l-0.5,0
						c0,0.3,0,0.7,0.2,1.1c0.3,0.8,0.8,1.4,1.2,1.3C87.6,68.8,87.6,68,87.4,67.2z"/>
					<path class="st7" d="M91.1,66.1c-0.3-0.7-0.8-1.3-1.1-1.1c0,0-0.1,0.1-0.1,0.1c0.1,0.2,0.4,0.6,0.4,0.6l-0.4,0
						c0,0.3,0.1,0.6,0.3,0.9c0.3,0.7,0.8,1.3,1.1,1.1C91.5,67.6,91.4,66.9,91.1,66.1z"/>
				</g>
			</g>
		</g>
	</g>
</g>
<g>
	<path class="st10" d="M395,79.7h-3.8c0,0-0.1,0-0.1,0c0,0,0,0.1,0,0.1v7.4c0,0,0,0.1,0,0.1c0,0,0.1,0,0.1,0h1.2c0,0,0.1,0,0.1,0
		c0,0,0-0.1,0-0.1v-3l2.4,0c0,0,0.1,0,0.1,0c0,0,0-0.1,0-0.1v-1.3c0,0,0-0.1,0-0.1c0,0-0.1,0-0.1,0h-2.4v-1.5l2.4,0c0,0,0.1,0,0.1,0
		c0,0,0-0.1,0-0.1v-1.3C395.2,79.8,395.2,79.8,395,79.7C395.1,79.7,395.1,79.7,395,79.7 M425.2,81.4c0,0-0.1-0.1-0.1-0.1h-1.4
		c-0.1,0-0.1,0-0.1,0.1l-1.2,3.2l-1.2-3.2c0-0.1-0.1-0.1-0.1-0.1h-1.4c0,0-0.1,0-0.1,0.1c0,0,0,0.1,0,0.1l0.2,0.4l1.8,5l-0.7,1.9
		c0,0,0,0.1,0,0.1c0,0,0.1,0.1,0.1,0.1h1.3c0.1,0,0.1,0,0.1-0.1l2.8-7.4C425.2,81.4,425.2,81.4,425.2,81.4 M419.3,81.3
		C419.3,81.3,419.3,81.3,419.3,81.3l-0.4,0c-0.2,0-0.5,0.1-0.7,0.1c0,0,0,0,0,0c0,0-0.1,0-0.1,0h-1.2c0,0-0.1,0-0.1,0
		c0,0,0,0.1,0,0.1v5.8c0,0,0,0.1,0,0.1c0,0,0.1,0,0.1,0h1.2c0,0,0.1,0,0.1,0c0,0,0-0.1,0-0.1v-3.4c0,0,0,0,0,0
		c0-0.4,0.1-0.7,0.2-0.7c0.1-0.1,0.2-0.2,0.5-0.2l0.3,0c0.1,0,0.1-0.1,0.1-0.1L419.3,81.3C419.3,81.4,419.3,81.3,419.3,81.3
		 M415.6,82c-0.6-0.6-1.3-0.9-2.1-0.9c0,0,0,0,0,0c0,0,0,0,0,0c-0.8,0-1.5,0.3-2,1c-0.6,0.6-0.8,1.4-0.8,2.2c0,0,0,0,0,0
		c0,0,0,0,0,0c0,0.8,0.3,1.6,0.8,2.2c0.5,0.6,1.3,0.9,2.1,0.9h0h0c0.8,0,1.5-0.3,2.1-1c0.5-0.6,0.8-1.4,0.8-2.3v0v0v0
		C416.4,83.3,416.1,82.6,415.6,82z M414.5,85.4L414.5,85.4c-0.3,0.3-0.6,0.4-1,0.4c-0.4,0-0.7-0.1-1-0.5c-0.3-0.3-0.4-0.7-0.4-1.2
		c0-0.5,0.1-0.9,0.4-1.2c0.3-0.3,0.6-0.4,0.9-0.5c0.4,0,0.7,0.1,1,0.4c0.3,0.3,0.4,0.7,0.4,1.2C414.9,84.7,414.8,85.1,414.5,85.4
		 M410.7,82.8v-1.3c0,0,0-0.1,0-0.1c0,0-0.1,0-0.1,0h-0.8v-1.5c0,0,0-0.1,0-0.1c0,0-0.1,0-0.1,0h-1.2c0,0-0.1,0-0.1,0
		c0,0,0,0.1,0,0.1v1.5h-0.8c0,0-0.1,0-0.1,0c0,0,0,0.1,0,0.1v1.3c0,0,0,0.1,0,0.1c0,0,0.1,0,0.1,0h0.8v4.4c0,0,0,0.1,0,0.1
		c0,0,0.1,0,0.1,0h1.2c0,0,0.1,0,0.1,0c0,0,0-0.1,0-0.1v-4.4h0.8C410.6,82.9,410.6,82.9,410.7,82.8
		C410.6,82.8,410.7,82.8,410.7,82.8 M404.5,82.6c0.3,0,0.5,0.1,0.7,0.2c0.2,0.1,0.4,0.3,0.5,0.7l0.1,0.2c0,0,0.1,0.1,0.1,0.1h1.3
		c0,0,0.1,0,0.1-0.1c0,0,0-0.1,0-0.1l-0.2-0.4c-0.2-0.6-0.6-1.1-1-1.5c-0.5-0.4-1-0.5-1.6-0.5c0,0,0,0,0,0h0c-0.8,0-1.5,0.3-2.1,0.9
		c-0.6,0.6-0.8,1.4-0.8,2.2c0,0,0,0,0,0v0c0,0.8,0.3,1.6,0.8,2.2c0.5,0.6,1.3,0.9,2.1,0.9h0c0.6,0,1.2-0.2,1.7-0.5
		c0.5-0.4,0.8-0.9,1-1.5l0.1-0.4c0,0,0-0.1,0-0.1c0,0-0.1-0.1-0.1-0.1h-1.3c-0.1,0-0.1,0-0.1,0.1l-0.1,0.2c-0.1,0.3-0.3,0.5-0.5,0.6
		c-0.2,0.1-0.4,0.2-0.7,0.2c-0.4,0-0.7-0.1-1-0.4c-0.3-0.3-0.4-0.7-0.4-1.2c0-0.5,0.1-0.9,0.4-1.2C403.8,82.7,404.1,82.6,404.5,82.6
		 M401.1,81.2h-1.2c0,0-0.1,0-0.1,0c0,0,0,0.1,0,0.1v0.1c0,0-0.1,0-0.1-0.1c-0.4-0.2-0.8-0.3-1.2-0.3c0,0,0,0,0,0c0,0,0,0,0,0
		c-0.8,0-1.6,0.3-2.1,0.9c-0.6,0.6-0.8,1.4-0.8,2.2c0,0,0,0,0,0c0,0.8,0.3,1.6,0.8,2.2c0.5,0.6,1.3,0.9,2.1,0.9h0
		c0.4,0,0.9-0.1,1.3-0.3c0,0,0.1,0,0.1-0.1v0.1c0,0,0,0.1,0,0.1c0,0,0.1,0,0.1,0h1.2c0,0,0.1,0,0.1,0s0-0.1,0-0.1v-5.8
		C401.3,81.3,401.3,81.3,401.1,81.2C401.2,81.2,401.2,81.2,401.1,81.2 M399.4,85.4L399.4,85.4c-0.3,0.3-0.6,0.5-0.9,0.5
		c-0.4,0-0.7-0.1-1-0.4c-0.3-0.3-0.4-0.7-0.4-1.2c0-0.5,0.1-0.9,0.4-1.2c0.3-0.3,0.6-0.5,1-0.5c0.3,0,0.6,0.1,0.9,0.5
		c0.3,0.3,0.4,0.7,0.4,1.1C399.8,84.7,399.6,85.1,399.4,85.4"/>
	<path class="st11" d="M391.4,63c0.3,0,0.5,0,0.9,0.2c-0.1-1.1,0-2.7-0.1-4.2l-3.3,0c-0.6,0-1.1,0.1-1.6,0.2
		c-0.5,0.1-0.9,0.3-1.3,0.6c-0.4,0.3-0.7,0.6-0.9,1c-0.2,0.4-0.4,0.8-0.4,1.3c-0.1,0.5-0.1,1.3-0.1,2.3c0,0.3,0,0.7,0,1.1
		c0,0,0,0.1-0.1,0.1c0,0-0.1,0-0.1,0c-0.7-0.1-1.3-0.1-1.9-0.1c-1.4,0-2.7,0.2-3.8,0.5c-1.1,0.3-2.1,0.9-3,1.7
		c-0.9,0.8-1.6,1.8-2.1,3c-0.5,1.2-0.7,2.5-0.7,4c0,1.2,0.2,2.4,0.7,3.5c0.5,1.1,1.2,1.9,2.1,2.5c0.9,0.6,2,0.9,3.1,0.9
		c0.5,0,1-0.1,1.4-0.2c0.4-0.1,0.9-0.3,1.2-0.5c0.4-0.2,0.7-0.4,1-0.6c0.3-0.2,0.6-0.5,0.9-0.9c0,0,0.1-0.1,0.2,0
		c0.1,0,0.1,0.1,0.1,0.2c0,0.8-0.1,1.4-0.1,1.8c0,0.4-0.1,0.8-0.2,1.2c-0.1,0.3-0.2,0.7-0.4,0.9c-0.2,0.3-0.4,0.5-0.7,0.7
		c-0.3,0.2-0.6,0.3-1,0.5c-0.4,0.1-0.9,0.2-1.4,0.2c-0.7,0-1.5-0.1-2.4-0.3c-0.9-0.2-1.9-0.5-3-0.9c0.1,1.2,0.1,1.9,0.1,2.3l0.1,1.9
		c0.7,0.2,1.3,0.3,1.8,0.4c0.5,0.1,1.1,0.2,1.8,0.3c0.7,0.1,1.4,0.2,2,0.2c0.7,0,1.2,0.1,1.7,0.1c0.8,0,1.5-0.1,2.3-0.2
		c0.7-0.1,1.2-0.3,1.7-0.5c0.5-0.2,0.9-0.5,1.3-0.9c0.3-0.3,0.6-0.7,0.9-1.2c0.2-0.4,0.4-0.9,0.5-1.4c0.1-0.6,0.2-1.2,0.2-1.8l0.1-5
		v-0.1l0.1-1.6l0.3-5l0.1-1.5c0-0.1,0.1-0.2,0.2-0.2h2.5c0.1-1.6,0.1-2.9,0.2-4.1h-2.9c-0.1,0-0.2-0.1-0.2-0.2l0-0.5
		c0-0.7,0.1-1.3,0.5-1.6c0.3-0.3,1-0.4,1.5-0.4C391.1,63,391.3,63,391.4,63 M383.6,74.4c-0.2,1-0.6,1.7-1.1,2.3
		c-0.6,0.6-1.2,0.9-1.9,0.9h0c-0.5,0-1-0.1-1.4-0.4c-0.4-0.3-0.8-0.7-0.9-1.2c-0.2-0.5-0.3-1-0.3-1.6c0-0.8,0.2-1.6,0.5-2.3
		c0.4-0.7,0.9-1.3,1.5-1.7c0.6-0.4,1.4-0.6,2.3-0.6c0.5,0,1,0.1,1.6,0.2c0.1,0,0.1,0.1,0.1,0.2C383.9,72,383.8,73.4,383.6,74.4"/>
	<path class="st11" d="M423,73.4l-0.1,0L423,73.4c-0.1-0.3-0.2-0.6-0.3-0.8c-0.2-0.3-0.5-0.6-0.8-0.8c-0.3-0.2-0.7-0.3-1.1-0.3
		c-0.4,0-0.7,0.1-1,0.2c0,0,0,0,0,0c0,0,0-0.1,0-0.1c0,0-0.1,0-0.1,0h-1.2c0,0-0.1,0-0.1,0c0,0,0,0.1,0,0.1v5.8c0,0,0,0.1,0,0.1
		c0,0,0.1,0,0.1,0h1.2c0,0,0.1,0,0.1,0c0,0,0-0.1,0-0.1v-2.8c0-0.4,0-0.7,0-0.9c0-0.1,0.1-0.3,0.1-0.3c0.1-0.2,0.2-0.3,0.3-0.3
		c0.1-0.1,0.3-0.1,0.5-0.1c0.4,0,0.6,0.1,0.7,0.2c0.1,0.1,0.2,0.5,0.2,1c0,0,0,0,0,0l0,3.2c0,0,0,0.1,0,0.1c0,0,0.1,0,0.1,0h1.2
		c0,0,0.1,0,0.1,0c0,0,0-0.1,0-0.1v-3C423.1,74.1,423.1,73.7,423,73.4 M401.5,73.4h-4.6c0,0-0.1,0-0.1,0c0,0,0,0.1,0,0.1v1.2
		c0,0,0,0.1,0,0.1c0,0,0.1,0,0.1,0h2.9c-0.1,0.3-0.3,0.6-0.6,0.8c-0.4,0.3-0.8,0.5-1.3,0.5c-0.6,0-1.1-0.2-1.5-0.7
		c-0.4-0.5-0.6-1-0.6-1.8c0-0.7,0.2-1.2,0.6-1.7c0.4-0.5,0.9-0.7,1.5-0.7c0.4,0,0.7,0.1,0.9,0.2c0.3,0.2,0.6,0.4,0.8,0.8l0.1,0.1
		c0,0,0.1,0.1,0.1,0.1h1.4c0,0,0.1,0,0.1-0.1s0-0.1,0-0.1l-0.2-0.5c-0.3-0.6-0.8-1.2-1.3-1.5c-0.6-0.4-1.2-0.6-1.9-0.6h0
		c0,0,0,0,0,0c-0.5,0-1,0.1-1.4,0.3c-0.4,0.2-0.8,0.5-1.2,0.8c-0.4,0.4-0.6,0.8-0.8,1.3c-0.2,0.5-0.3,1-0.3,1.5c0,0,0,0,0,0
		c0,1.1,0.3,2.1,1,2.8c0.7,0.8,1.6,1.2,2.6,1.2l0,0l0,0h0c1,0,1.9-0.4,2.6-1.1c0.7-0.7,1.1-1.6,1.1-2.7l0-0.3
		C401.7,73.5,401.6,73.5,401.5,73.4C401.6,73.4,401.6,73.4,401.5,73.4 M410,72.3c-0.5-0.6-1.3-1-2.1-1c0,0,0,0,0,0c0,0,0,0,0,0
		c-0.8,0-1.6,0.3-2.1,0.9c-0.5,0.6-0.8,1.4-0.8,2.2c0,0,0,0,0,0c0,0,0,0,0,0c0,0.8,0.3,1.6,0.8,2.2c0.5,0.6,1.3,0.9,2.1,0.9h0
		c0.6,0,1.2-0.2,1.6-0.5c0.4-0.3,0.7-0.7,0.9-1.2c0,0,0-0.1,0-0.1c0,0-0.1-0.1-0.1-0.1h-1.5c0,0-0.1,0-0.1,0
		c-0.1,0.1-0.1,0.1-0.2,0.2c-0.2,0.1-0.4,0.2-0.7,0.2c-0.4,0-0.7-0.1-1-0.4c-0.2-0.2-0.3-0.4-0.4-0.6h4.1c0,0,0.1,0,0.1,0
		c0,0,0-0.1,0-0.1v-0.4v0C410.8,73.8,410.5,73,410,72.3 M406.6,73.8c0.1-0.2,0.2-0.4,0.3-0.5c0.3-0.2,0.5-0.3,0.9-0.3
		c0.4,0,0.7,0.1,0.9,0.3c0.1,0.1,0.3,0.3,0.4,0.5H406.6z M416.5,72.3c-0.5-0.6-1.3-1-2.1-1h0c0,0,0,0,0,0c0,0,0,0,0,0
		c-0.8,0-1.6,0.3-2.1,0.9c-0.5,0.6-0.8,1.4-0.8,2.2c0,0,0,0,0,0v0c0,0.8,0.3,1.6,0.8,2.2c0.5,0.6,1.3,0.9,2.1,0.9h0
		c0.6,0,1.2-0.2,1.7-0.5c0.4-0.3,0.7-0.7,0.9-1.2c0,0,0-0.1,0-0.1c0,0-0.1-0.1-0.1-0.1h-1.5c0,0-0.1,0-0.1,0
		c-0.1,0.1-0.1,0.1-0.2,0.2c-0.2,0.1-0.4,0.2-0.7,0.2c-0.4,0-0.7-0.1-1-0.4c-0.2-0.2-0.3-0.4-0.4-0.6h4.1c0,0,0.1,0,0.1,0
		c0,0,0-0.1,0-0.1v-0.4l0,0C417.3,73.8,417.1,73,416.5,72.3 M413.1,73.8c0.1-0.2,0.2-0.4,0.3-0.5c0.3-0.2,0.5-0.3,0.9-0.3
		c0.4,0,0.7,0.1,0.9,0.3c0.1,0.1,0.3,0.3,0.4,0.5H413.1z M408.1,68.3L408.1,68.3c1.1-1,2-1.8,2-1.8l0.2-0.2c1-0.9,2.1-1.7,3.2-2.5
		c0,0,0,0,0,0v0l0,0c0,0,0,0,0-0.1c0,0,0,0-0.1,0c-0.4,0.3-0.9,0.5-1.3,0.8c-1.3,0.8-3.2,2-4,2.7c-0.7,0.5-2.1,1.7-2.6,2.2
		c0,0,0,0,0,0c-0.1,0.1-0.1,0.1-0.2,0.2c-0.5,0.5-1.3,1.4-1.7,2.1h-1c0,0-0.1,0-0.1,0c0,0,0,0.1,0,0.1v5.8c0,0,0,0.1,0,0.1
		c0,0,0.1,0,0.1,0h1.2c0,0,0.1,0,0.1,0c0,0,0-0.1,0-0.1v-3.4c0-0.4,0.1-0.6,0.2-0.8c0.1-0.3,0.4-0.8,0.6-1.1
		c0.3-0.4,0.5-0.8,1.2-1.7C406.6,69.8,408.1,68.3,408.1,68.3 M412.6,68.6c0.3-0.1,0.6-0.3,0.8-0.5c0.4-0.3,0.9-0.8,1.3-1.3
		c0,0,0,0,0,0c0,0,0,0,0,0l-4.3-0.2c-0.6,0.5-1.2,1.1-1.7,1.5L412.6,68.6L412.6,68.6z M407.2,69.7c0.1,0,0.3,0,0.4,0
		c1.6,0,3.1-0.3,4.3-0.8c0,0,0,0,0,0c0,0,0,0,0,0l-3.5-0.5C407.8,69.1,407.4,69.5,407.2,69.7 M413.4,64.2
		C413.4,64.2,413.4,64.3,413.4,64.2C413.4,64.3,413.5,64.3,413.4,64.2C413.5,64.3,413.5,64.3,413.4,64.2l3.1-0.6c0,0,0,0,0,0l0,0
		c0,0,0,0,0,0c0,0,0,0,0,0c0.2-0.5,0.3-1,0.3-1.4c0,0,0,0,0,0c0,0,0,0,0,0c-1.1,0.6-2.2,1.2-3.2,1.9C413.7,64,413.6,64.1,413.4,64.2
		 M410,65.5C410,65.5,410,65.5,410,65.5L410,65.5c0.7-0.4,1.4-0.8,2-1.1l2.2-3.1c0,0,0,0,0,0s0,0,0,0c0,0-0.1,0-0.1,0
		c-0.9,0-1.9,0.2-2.9,0.6l0,0c-0.1,0.2-0.4,1.2-0.7,2C410.2,64.6,410.1,65.2,410,65.5 M409.7,65.8c0.1-0.3,0.3-1.2,0.5-2
		c0.2-0.6,0.4-1.3,0.6-1.7c0,0,0,0,0,0c0,0,0,0,0,0c-0.4,0.2-0.8,0.4-1.2,0.6c-0.4,0.2-0.7,0.5-1,0.7c0,0,0,0,0,0c0,0,0,0.1,0,0.1h0
		c-0.4,1.2-0.6,2.5-0.7,3.6C408.4,66.6,409.1,66.2,409.7,65.8 M408.1,63.9C408.1,63.8,408.1,63.8,408.1,63.9
		C408.1,63.8,408,63.8,408.1,63.9c-1.3,1.2-2.1,2.8-2.4,4.8c0.4-0.3,0.9-0.7,1.7-1.3C407.5,66.3,407.7,65,408.1,63.9 M412.7,63.9
		C412.7,63.9,412.7,63.9,412.7,63.9C412.8,63.9,412.8,63.9,412.7,63.9C412.8,63.9,412.8,63.9,412.7,63.9c0.3-0.1,0.4-0.2,0.4-0.2
		s0,0,0,0c1.2-0.7,2.4-1.3,3.6-2c0,0,0,0,0,0c0,0,0,0,0,0c-0.7-0.3-1.4-0.4-2.1-0.5l0,0L412.7,63.9
		C412.7,63.9,412.7,63.9,412.7,63.9 M415,66.6c0.6-0.8,1.2-1.7,1.5-2.6c0,0,0,0,0,0c0,0,0,0,0,0l-3.7,0.8c-0.6,0.4-1.3,1-2,1.6
		L415,66.6L415,66.6z M420.4,66.4h0.2c0.1,0,0.2,0,0.3,0.1c0.1,0.1,0.2,0.2,0.3,0.5l0.2,0.3h0.4l-0.2-0.4c-0.1-0.2-0.2-0.3-0.3-0.4
		c0,0-0.1-0.1-0.2-0.1c0.2,0,0.3-0.1,0.4-0.2c0.1-0.1,0.2-0.2,0.2-0.4c0-0.1,0-0.2-0.1-0.3c-0.1-0.1-0.1-0.2-0.3-0.2
		c-0.1,0-0.3-0.1-0.5-0.1h-0.7v2h0.3V66.4z M420.4,65.5h0.4c0.2,0,0.3,0,0.3,0c0.1,0,0.1,0.1,0.1,0.1c0,0,0.1,0.1,0.1,0.2
		c0,0.1,0,0.2-0.1,0.2c-0.1,0.1-0.2,0.1-0.4,0.1h-0.4V65.5z M420,67.8c0.3,0.2,0.6,0.3,0.9,0.3c0.3,0,0.6-0.1,0.9-0.3
		c0.3-0.2,0.5-0.4,0.7-0.7c0.2-0.3,0.2-0.6,0.2-0.9c0-0.3-0.1-0.6-0.3-0.9c-0.2-0.3-0.4-0.5-0.7-0.7c-0.3-0.2-0.6-0.2-0.9-0.2
		c-0.3,0-0.6,0.1-0.9,0.2c-0.3,0.2-0.5,0.4-0.7,0.7c-0.2,0.3-0.3,0.6-0.3,0.9c0,0.3,0.1,0.6,0.2,0.9C419.5,67.4,419.7,67.7,420,67.8
		 M419.6,65.4c0.1-0.3,0.3-0.4,0.6-0.6c0.3-0.1,0.5-0.2,0.8-0.2c0.3,0,0.5,0.1,0.8,0.2c0.3,0.1,0.4,0.3,0.6,0.6
		c0.1,0.3,0.2,0.5,0.2,0.8c0,0.3-0.1,0.5-0.2,0.8c-0.1,0.2-0.3,0.4-0.6,0.6c-0.2,0.1-0.5,0.2-0.8,0.2c-0.3,0-0.5-0.1-0.8-0.2
		c-0.2-0.1-0.4-0.3-0.6-0.6c-0.1-0.2-0.2-0.5-0.2-0.8C419.4,65.9,419.4,65.7,419.6,65.4"/>
</g>
<g>
	<path class="st12" d="M466.2,67.2c0.2,0,0.3,0.1,0.5,0.2c0.5,0.3,0.9,1.2,0.9,3.5c0,2.2-0.2,3.2-0.6,3.6c-0.2,0.3-0.5,0.4-0.7,0.5
		v0.1c2.3-0.3,4-1.7,4-4.1c0-2.3-1.8-3.8-4.2-3.9V67.2z"/>
	<path class="st12" d="M471.1,69.4v4.2c0,1-0.2,1.2-0.9,1.3v0.1h4.3v-0.1c-0.6-0.1-0.8-0.3-0.8-1.2v-6.6l0-0.1l-3.4,1v0.1
		c0.1,0,0.2,0.1,0.3,0.2C470.9,68.5,471.1,68.8,471.1,69.4"/>
	<path class="st12" d="M462.5,82.2c0.3,0.5,0.9,0.6,1.4,0.3c0.5-0.3,0.7-0.9,0.4-1.4c-0.3-0.5-0.9-0.6-1.4-0.3
		C462.3,81.2,462.2,81.7,462.5,82.2"/>
	<path class="st12" d="M452,69.5l-1.5,0.2v0.1h3.8c0-1.4-0.9-2.7-3-2.7v0.1C451.7,67.4,451.9,68.4,452,69.5"/>
	<path class="st12" d="M451,75.1c2.3,0,3.3-1.8,3.5-2.8l-0.1-0.1c-0.4,0.5-1,0.9-2.1,0.9c-1.5,0-2.4-1-2.4-3c0-1.9,0.4-2.7,0.9-2.9
		v-0.1c-2.1,0.3-3.6,1.9-3.6,4.1C447.3,73.2,448.5,75.1,451,75.1"/>
	<path class="st12" d="M459.2,68c0.1,0,0.1,0,0.1,0c-0.1,0.2-0.2,0.5-0.2,0.8c0,0.7,0.5,1.2,1.2,1.2c0.8,0,1.4-0.6,1.4-1.4
		c0-0.9-0.6-1.5-1.5-1.5c-0.8,0-1.5,0.7-1.7,1.3v0.1C458.8,68.1,459,68,459.2,68"/>
	<path class="st12" d="M459.2,74.8c-0.6-0.1-1-0.4-1-1.2v-6.5l0-0.1l-3.4,1v0.1c0.1,0,0.2,0.1,0.3,0.2c0.3,0.2,0.5,0.4,0.5,1v4.2
		c0,1-0.2,1.2-0.9,1.3v0.1h4.6V74.8z"/>
	<path class="st12" d="M500.8,79.4v0.1c0.8,0.2,1.8,1.4,2.1,2.4h0.1l-0.1-2.3C502.6,79.6,501.6,79.4,500.8,79.4"/>
	<path class="st12" d="M495,69.7v3.9c0,0.8-0.2,1.1-0.8,1.2v0.1h4.3v-0.1c-0.6-0.1-0.9-0.3-0.9-1.3v-4.2c0-1.3-0.4-2.3-1.9-2.3
		c-1.1,0-2.1,0.7-2.6,1.5v0.1c0.2-0.1,0.5-0.2,0.7-0.2C494.7,68.5,495,68.8,495,69.7"/>
	<path class="st12" d="M490.1,69.7v3.9c0,0.8-0.2,1.1-0.8,1.2v0.1h4.2v-0.1c-0.6-0.1-0.8-0.3-0.8-1.2v-4.3c0-1.3-0.4-2.3-1.9-2.3
		c-1.1,0-2.1,0.7-2.6,1.5v0.1c0.2-0.1,0.5-0.2,0.7-0.2C489.9,68.5,490.1,68.8,490.1,69.7"/>
	<path class="st12" d="M484.2,74.8c-0.6-0.1-0.9-0.3-0.9-1.3v-4.1c0-0.7,0-1.6,0.1-2.3l0-0.1l-3.5,1v0.1c0.1,0,0.3,0.2,0.3,0.2
		c0.3,0.2,0.5,0.5,0.5,1.1v4.1c0,1-0.2,1.2-0.9,1.3v0.1h4.5V74.8z"/>
	<path class="st12" d="M502.9,75.1v-0.1c-0.2,0-0.3-0.1-0.5-0.2c-0.5-0.3-0.9-1.1-0.9-3.5c0-2.2,0.3-3.2,0.6-3.6
		c0.2-0.2,0.4-0.4,0.6-0.4v-0.1c-2.2,0.2-4,1.7-4,4.1C498.7,73.4,500.4,75,502.9,75.1"/>
	<path class="st12" d="M488.7,74.8c-0.6-0.1-0.8-0.3-0.8-1.2v-6.6l0-0.1l-3.4,1v0.1c0.1,0,0.2,0.1,0.3,0.2c0.3,0.2,0.5,0.4,0.5,1
		v4.2c0,1-0.2,1.2-0.9,1.3v0.1h4.3V74.8z"/>
	<path class="st12" d="M482,66.6c0.8,0,1.4-0.6,1.4-1.4c0-0.8-0.6-1.4-1.4-1.4c-0.8,0-1.4,0.6-1.4,1.4
		C480.5,66.1,481.2,66.6,482,66.6"/>
	<path class="st12" d="M485.3,79c0.8,0,1.4-0.6,1.4-1.4c0-0.8-0.6-1.4-1.4-1.4c-0.8,0-1.4,0.6-1.4,1.4C483.9,78.5,484.5,79,485.3,79
		"/>
	<path class="st12" d="M476.1,69.7v3.9c0,0.8-0.2,1.1-0.8,1.2v0.1h4.3v-0.1c-0.6-0.1-0.9-0.3-0.9-1.3v-4.2c0-1.3-0.5-2.3-2-2.3
		c-1.1,0-2.1,0.7-2.6,1.5v0.1c0.2-0.1,0.5-0.2,0.8-0.2C475.7,68.5,476.1,68.8,476.1,69.7"/>
	<path class="st12" d="M496.3,85.9v-4.2c0-1.3-0.5-2.3-2-2.3c-1.1,0-2.1,0.7-2.6,1.5V81c0.2-0.1,0.5-0.2,0.8-0.2
		c0.8,0,1.1,0.4,1.1,1.3V86c0,0.8-0.2,1.1-0.8,1.2v0.1h4.3v-0.1C496.5,87.1,496.3,86.8,496.3,85.9"/>
	<path class="st12" d="M491.3,86v-6.6l0-0.1l-3.4,1v0.1c0.1,0,0.2,0.1,0.3,0.2c0.3,0.2,0.5,0.4,0.5,1v4.2c0,1-0.2,1.2-0.9,1.3v0.1
		h4.3v-0.1C491.5,87.1,491.3,86.8,491.3,86"/>
	<path class="st12" d="M475.2,79.4c-0.8,0-1.5,0.7-1.7,1.3v0.1c0.2-0.4,0.5-0.5,0.7-0.5c0.1,0,0.1,0,0.1,0c-0.1,0.2-0.2,0.5-0.2,0.8
		c0,0.7,0.5,1.2,1.2,1.2c0.8,0,1.4-0.6,1.4-1.4C476.7,80,476.1,79.4,475.2,79.4"/>
	<path class="st12" d="M483.2,85.7c-0.2,0.1-0.7,0.2-1.1,0.2c-0.9,0-1.4-0.4-1.4-1.4v-3.9h2.2l0.2-1h-2.4v-2l-0.2-0.1l-3.3,2.8v0.3
		h0.9v4.6c0,1.7,1.1,2.2,2.3,2.2C481.7,87.4,482.8,86.5,483.2,85.7L483.2,85.7z"/>
	<path class="st12" d="M486.7,85.9v-4.1c0-0.7,0-1.6,0.1-2.3l0-0.1l-3.5,1v0.1c0.1,0,0.3,0.2,0.3,0.2c0.3,0.2,0.5,0.5,0.5,1.1v4.1
		c0,1-0.2,1.2-0.9,1.3v0.1h4.5v-0.1C487,87.1,486.7,86.9,486.7,85.9"/>
	<path class="st12" d="M503.1,67.1v0.1c0.2,0,0.3,0.1,0.5,0.2c0.5,0.3,0.9,1.2,0.9,3.5c0,2.2-0.2,3.2-0.6,3.6
		c-0.2,0.3-0.5,0.4-0.7,0.5v0.1c2.3-0.3,4-1.7,4-4.1C507.3,68.7,505.5,67.2,503.1,67.1"/>
	<path class="st12" d="M497.6,84.5h-0.1l0.1,2.4c0.5,0.2,1.5,0.5,2.3,0.5v-0.1C499.1,87.1,497.9,85.6,497.6,84.5"/>
	<path class="st12" d="M501.2,82.2c-0.8-0.5-1.7-0.9-1.7-1.7c0-0.6,0.4-0.9,0.7-1v-0.1c-1.6,0.2-2.8,1.1-2.8,2.5c0,1.4,1,2.1,2,2.7
		c0.9,0.5,1.7,1,1.7,1.7c0,0.6-0.4,1-0.9,1.1v0.1c1.8-0.1,3-1,3-2.7C503.3,83.6,502.3,82.9,501.2,82.2"/>
	<g>
		<path class="st12" d="M442.1,73.7c-0.4-0.7-1.3-0.8-1.9-0.4c-0.7,0.4-0.9,1.2-0.5,1.9c0.4,0.7,1.3,0.8,1.9,0.4
			C442.3,75.2,442.5,74.4,442.1,73.7"/>
		<path class="st12" d="M447.4,64.4v-0.1h-5.7v0.1c1,0.2,1.3,0.6,1.3,2v7.4c0,0.2,0,0.4,0,0.6l0,0c0,0-0.1,1.3-1.5,1.9
			c0,0,1.4,0.2,2.7-0.5c0.4-0.2,0.7-0.5,1-0.7c0,0,0,0,0,0l0,0c0.7-0.8,0.8-1.7,0.8-2v-6.7C446.1,64.8,446.5,64.5,447.4,64.4"/>
	</g>
	<polygon class="st12" points="453.5,87.4 453.5,87.4 453.5,87.4 	"/>
	<path class="st12" d="M460.5,85.1l-0.3-6.4c-0.1-1.5,0.4-1.8,1.4-2v-0.1h-4.5v0h0l-2.2,5.6l0.3,0.7l2-5.1l0.3,7.5
		c0.1,1.4-0.5,1.7-1.3,1.8v0.1h5.8v-0.1C461,87,460.6,86.6,460.5,85.1"/>
	<path class="st12" d="M454.7,82.7l-2.7-6.2h-4.8v0.1c0.5,0.1,1.1,0.3,1.5,0.7c0.5,0.4,0.8,1,1.1,1.7l3.7,8.2l0,0l0.1,0l1.5-3.9
		L454.7,82.7L454.7,82.7z"/>
	<path class="st12" d="M449.7,86.4c-0.3-0.4-0.4-1-0.5-1.7l0.3-4.9l-0.4-0.9l-0.4,5.5c-0.1,0.6-0.2,1-0.3,1.2
		c-0.1,0.2-0.3,0.5-0.4,0.6c0,0,0,0,0,0l0,0c0,0.1-0.1,0.1-0.1,0.2c-0.4,0.4-0.8,0.6-1.5,0.7v0.1h4.8v-0.1
		C450.6,87.1,450.1,86.9,449.7,86.4"/>
	<path class="st12" d="M469.6,86.2c-0.1,0.1-0.3,0.1-0.4,0.1c-0.4,0-0.6-0.2-0.6-0.7v-3.8c0-1.5-0.7-2.4-2.6-2.4
		c-0.9,0-1.9,0.4-2.6,0.9v0.1c1.5,0,2.5,0.4,2.5,1.6v3.5c0,1.3,0.6,2,1.8,2C468.7,87.4,469.4,86.8,469.6,86.2L469.6,86.2z"/>
	<path class="st12" d="M464.4,84.8c0-0.4,0.1-0.8,0.3-1c0.2-0.2,0.5-0.4,0.8-0.5v-0.1c-0.7,0.2-2.6,0.6-2.9,0.7
		c-0.3,0.1-0.8,0.7-0.8,1.6c0,1.1,0.7,1.9,1.9,1.9c1.1,0,1.8-0.8,1.9-1.3v-0.1c-0.1,0.1-0.3,0.1-0.5,0.1
		C464.6,86.2,464.4,85.9,464.4,84.8"/>
	<path class="st12" d="M473.1,85.9v-6.5l0-0.1l-3.4,1v0.1c0.1,0,0.2,0.1,0.3,0.2c0.3,0.2,0.5,0.4,0.5,1v4.2c0,1-0.2,1.2-0.9,1.3v0.1
		h4.6v-0.1C473.4,87.1,473.1,86.8,473.1,85.9"/>
	<path class="st12" d="M464.2,67.5c-1.4,0.6-2.4,1.9-2.4,3.7c0,2.3,1.8,3.8,4.2,3.9v-0.1c-0.2,0-0.3-0.1-0.5-0.2
		c-0.5-0.3-0.9-1.1-0.9-3.5c0-2.2,0.3-3.2,0.6-3.6c0.2-0.2,0.4-0.4,0.6-0.4v-0.1c-0.4,0-0.8,0.1-1.1,0.2c0.5-0.7,0.6-0.7,0.6-0.7
		c0.6,0,1.1-0.2,1.1-0.2c2-0.6,2-3,2-3l-0.1,0c0,0-0.1,0.1-0.1,0.1c-0.3,0.4-0.8,0.6-1.3,0.7c-1.8,0.4-2,1.2-2,1.9l0,0.1
		c0.8-0.8,1.7-1.3,2-1.4l0,0.1C465.4,65.8,464.3,67.3,464.2,67.5"/>
</g>
</svg>
